<svg width="21" height="16" viewBox="0 0 21 16" fill="none" xmlns="http://www.w3.org/2000/svg">
<path d="M5.88624 10.6108C6.39808 10.6108 6.81301 10.204 6.81301 9.70214C6.81301 9.20027 6.39808 8.79346 5.88624 8.79346C5.37441 8.79346 4.95947 9.20027 4.95947 9.70214C4.95947 10.204 5.37441 10.6108 5.88624 10.6108Z" fill="#8492A7" stroke="#8492A7" stroke-width="1.92028" stroke-linecap="round" stroke-linejoin="round"/>
<path d="M1.25195 5.15866V2.06914C1.25195 1.76803 1.50091 1.52393 1.80801 1.52393H19.2313C19.5384 1.52393 19.7873 1.76803 19.7873 2.06914V5.15866M1.25195 5.15866V13.7003C1.25195 14.0014 1.50091 14.2455 1.80801 14.2455H19.2313C19.5384 14.2455 19.7873 14.0014 19.7873 13.7003V5.15866M1.25195 5.15866H19.7873" stroke="#8492A7" stroke-width="1.92028" stroke-linecap="round" stroke-linejoin="round"/>
</svg>
