<svg width="33" height="33" viewBox="0 0 33 33" fill="none" xmlns="http://www.w3.org/2000/svg">
<path fill-rule="evenodd" clip-rule="evenodd" d="M13.5905 17.4435C17.2633 17.4435 20.2073 14.4614 20.2073 10.741C20.2073 7.02075 17.2633 4.03857 13.5905 4.03857C9.91775 4.03857 6.97368 7.02075 6.97368 10.741C6.97368 14.4614 9.91775 17.4435 13.5905 17.4435ZM13.5905 20.7255C8.19614 20.7255 3.59052 21.588 3.59052 25.0338C3.59052 28.4783 8.16811 29.3719 13.5905 29.3719C18.9836 29.3719 23.5905 28.5094 23.5905 25.0635C23.5905 21.6178 19.0129 20.7255 13.5905 20.7255ZM27.4544 13.4891H29.0585C29.7188 13.4891 30.2572 14.035 30.2572 14.7046C30.2572 15.374 29.7188 15.92 29.0585 15.92H27.4544V17.4898C27.4544 18.1594 26.9174 18.7052 26.2558 18.7052C25.5956 18.7052 25.0572 18.1594 25.0572 17.4898V15.92H23.4558C22.7941 15.92 22.2572 15.374 22.2572 14.7046C22.2572 14.035 22.7941 13.4891 23.4558 13.4891H25.0572V11.9207C25.0572 11.2512 25.5956 10.7052 26.2558 10.7052C26.9174 10.7052 27.4544 11.2512 27.4544 11.9207V13.4891Z" fill="white"/>
</svg>
