<svg width="21" height="24" viewBox="0 0 21 24" fill="none" xmlns="http://www.w3.org/2000/svg">
<path d="M19.3697 11.9655H3.94975V5.76441C3.94327 4.95016 4.30659 4.1987 4.89309 3.8133C5.2113 3.60239 5.57391 3.51305 5.93406 3.55682C5.56026 4.94133 5.85393 6.46528 6.69391 7.49993L7.65592 8.67646C8.01006 9.10978 8.58442 9.10978 8.93856 8.67646L12.1452 4.75473C12.4995 4.32161 12.4995 3.61916 12.1452 3.18604L11.1832 2.00952C10.077 0.662704 8.33366 0.501478 7.07445 1.62953C5.95875 1.09662 4.69976 1.27287 3.71139 2.10036C2.72302 2.92785 2.13313 4.29951 2.13564 5.76441L2.13564 11.9655H1.22859C0.727636 11.9655 0.321533 12.4622 0.321533 13.0748C0.321533 13.6875 0.727636 14.1842 1.22859 14.1842H2.13564V17.5122C2.13918 18.918 2.86566 20.1688 3.94975 20.6358L3.94975 21.9496C3.94975 22.5623 4.35585 23.059 4.85681 23.059C5.35776 23.059 5.76386 22.5623 5.76386 21.9496V20.8403H14.8344V21.9496C14.8344 22.5623 15.2405 23.059 15.7415 23.059C16.2424 23.059 16.6485 22.5623 16.6485 21.9496V20.6358C17.7326 20.1688 18.4591 18.918 18.4626 17.5122L18.4626 14.1842H19.3697C19.8706 14.1842 20.2767 13.6875 20.2767 13.0748C20.2767 12.4622 19.8706 11.9655 19.3697 11.9655ZM7.97658 3.57821C8.50828 2.92965 9.36883 2.92965 9.90053 3.57821L10.2212 3.97038L8.29727 6.32341L7.9766 5.93125C7.446 5.28113 7.44599 4.22834 7.97658 3.57821ZM16.6485 17.5122C16.6482 18.1248 16.2423 18.6212 15.7415 18.6216L4.85681 18.6216C4.35599 18.6212 3.95009 18.1248 3.94975 17.5122V14.1842H16.6485V17.5122Z" fill="#125777"/>
</svg>
