<svg width="1240" height="278" viewBox="0 0 1240 278" fill="none" xmlns="http://www.w3.org/2000/svg">
<g opacity="0.3" clip-path="url(#clip0_380_1085)">
<path fill-rule="evenodd" clip-rule="evenodd" d="M979.675 148.797C976.88 151.476 977.68 151.163 971.177 149.202C965.474 147.347 968.179 146.732 963.074 149.713C958.475 152.497 950.969 155.269 947.475 157.426C948.783 160.407 959.974 170.185 962.679 174.198C961.676 174.709 960.876 175.126 959.783 175.637C958.081 176.46 958.487 176.46 956.48 175.231C952.085 172.656 937.975 164.42 935.18 163.191C931.483 164.838 921.678 169.988 918.285 169.779C916.685 169.675 914.082 169.269 914.589 167.204C915.885 162.159 924.687 159.386 930.39 156.811C932.689 155.779 932.092 155.883 932.587 153.309C933.196 150.536 936.994 130.366 937.884 129.333C938.279 129.02 941.378 127.686 941.987 127.373C942.291 129.229 942.483 131.282 942.584 133.242L943.587 144.667C943.587 146.523 943.892 148.681 944.185 150.432C946.788 149.098 949.38 147.961 952.085 146.628C965.485 140.039 963.085 144.47 966.184 137.058C967.987 132.941 967.987 130.47 971.887 131.085C971.177 139.332 973.375 144.47 979.675 148.797ZM865.878 69.0421C869.485 70.1788 868.673 70.2832 873.677 65.5392C878.073 61.4216 875.379 62.0363 881.274 62.5583C886.469 62.9643 894.471 62.2451 898.574 62.6627C898.675 65.8524 892.578 79.6436 891.778 84.4803C892.882 84.4803 893.772 84.4803 894.978 84.4803C896.883 84.4803 896.477 84.6891 897.875 82.7289C900.771 78.4025 909.979 64.7157 912.075 62.4539C916.178 62.3495 927.076 62.5583 930.074 61.0156C931.472 60.1921 933.669 58.5451 932.373 56.898C929.071 52.9892 919.976 54.323 913.777 54.5318C911.275 54.5318 911.884 54.4274 910.272 52.3744C908.57 50.1126 896.77 33.5377 895.576 33.0274C895.08 32.923 891.676 33.0274 891.079 33.0274C891.485 34.8832 892.183 36.7274 892.882 38.5833L896.782 49.3819C897.48 51.0289 898.179 53.1863 898.686 54.8334C895.79 54.729 892.882 54.8334 889.884 54.8334C875.086 54.8334 879.189 57.8143 873.182 52.4672C869.891 49.4863 868.888 47.3173 865.585 49.5907C869.586 56.7008 869.778 62.3495 865.878 69.0421ZM864.278 58.5451C865.777 58.3363 866.284 60.7025 864.571 61.0156L862.17 61.3288C860.672 61.642 860.063 59.1714 861.765 58.8582L864.278 58.5451ZM651.9 223.204C651.1 224.851 648.902 223.61 649.601 222.172L650.198 220.838C650.999 219.295 653.196 220.524 652.396 221.974L651.9 223.204ZM655.698 215.073C654.898 216.616 652.7 215.491 653.501 213.936L654.605 211.674C655.304 210.132 657.502 211.361 656.803 212.8L655.698 215.073ZM660.195 206.014C659.496 207.452 657.197 206.42 657.997 204.877L659.192 202.616C659.891 201.177 662.089 202.21 661.39 203.857L660.195 206.014ZM664.996 197.164C664.095 198.707 661.998 197.269 662.799 195.923L664.095 193.661C664.996 192.119 666.991 193.557 666.191 194.891L664.996 197.164ZM670 188.419C669.099 189.857 667.002 188.523 667.904 187.085L669.2 184.927C670 183.489 672.198 184.823 671.296 186.261L670 188.419ZM675.297 179.777C674.497 181.111 672.299 179.882 673.201 178.443L674.599 176.286C675.399 174.952 677.597 176.182 676.593 177.724L675.297 179.777ZM680.797 171.438C679.794 172.772 677.901 171.229 678.802 169.895L680.2 167.842C681.203 166.508 683.198 168.051 682.195 169.385L680.797 171.438ZM686.59 163.202C685.587 164.536 683.694 162.994 684.686 161.66L686.184 159.607C687.188 158.273 689.081 159.92 688.078 161.149L686.59 163.202ZM692.394 155.489C691.493 155.999 690.4 155.176 690.49 154.155C690.388 153.54 690.884 152.717 691.594 152.613L692.394 151.58C693.397 150.351 695.392 151.893 694.299 153.227L694.096 153.541L694.491 153.645C696.091 154.26 695.088 156.626 693.589 156.011L692.394 155.489ZM699.1 147.463C697.894 148.704 696.204 146.952 697.297 145.711L698.897 143.855C700.092 142.521 701.794 144.366 700.701 145.502L699.1 147.463ZM705.795 139.947C704.69 141.176 702.797 139.436 703.992 138.195L705.693 136.339C706.798 135.11 708.59 136.85 707.497 138.091L705.795 139.947ZM712.692 132.744C711.396 133.88 709.796 131.92 710.99 130.888L712.692 129.136C713.988 127.895 715.589 129.855 714.496 130.992L712.692 132.744ZM719.894 125.749C718.688 126.886 716.998 125.03 718.192 123.894L720.097 122.142C721.292 121.005 722.993 122.966 721.697 124.102L719.894 125.749ZM727.287 119.161C726.183 120.194 724.492 118.338 725.788 117.213L727.693 115.566C729.091 114.429 730.488 116.598 729.192 117.526L727.287 119.161ZM735.086 112.782C733.689 113.814 732.291 111.749 733.587 110.822L735.492 109.279C736.89 108.247 738.287 110.311 736.991 111.239L735.086 112.782ZM742.987 106.808C741.792 107.736 740.192 105.776 741.589 104.755C742.288 104.245 742.987 103.723 743.686 103.317C744.88 102.389 746.481 104.349 745.083 105.37C744.396 105.88 743.697 106.298 742.987 106.808ZM751.192 101.148C749.794 102.076 748.588 99.8141 749.896 98.9906L751.992 97.6567C753.389 96.7288 754.697 98.9906 753.288 99.8141L751.192 101.148ZM759.588 95.9053C758.292 96.7288 756.894 94.5714 758.393 93.6435L760.591 92.414C761.887 91.5905 763.285 93.7479 761.786 94.6758L759.588 95.9053ZM768.289 90.9641C766.688 91.7877 765.685 89.4215 767.083 88.7023L769.281 87.4729C770.779 86.7537 771.884 89.1199 770.486 89.839L768.289 90.9641ZM777.091 86.4405C775.693 87.1597 774.487 84.8979 775.986 84.0744C776.787 83.7612 777.485 83.3552 778.286 83.042C779.683 82.3229 780.787 84.5847 779.289 85.3038C778.59 85.7098 777.79 86.023 777.091 86.4405ZM786.085 82.2185C784.484 82.8333 783.684 80.4671 785.082 79.8523L787.381 78.82C788.981 78.2053 789.781 80.6643 788.282 81.1862L786.085 82.2185ZM795.191 78.4025C793.692 79.0172 792.79 76.651 794.289 76.0363L796.69 75.1084C798.087 74.4936 799.09 76.8598 797.49 77.4746L795.191 78.4025ZM804.489 74.9112C802.99 75.4215 802.088 73.0553 803.689 72.545C804.489 72.2318 805.289 71.9303 806.089 71.7215C807.487 71.1067 808.389 73.4729 806.788 74.0877C805.988 74.3892 805.289 74.598 804.489 74.9112ZM813.888 71.8259C812.187 72.2318 811.691 69.7728 813.19 69.3553L815.59 68.6361C817.191 68.2302 817.788 70.6892 816.188 71.1067L813.888 71.8259ZM823.389 69.0421C821.789 69.4597 821.192 66.9891 822.792 66.5715L825.193 65.9568C826.692 65.5508 827.39 68.0098 825.79 68.4274L823.389 69.0421ZM832.98 66.6759C831.481 67.0819 830.681 64.6229 832.383 64.101L834.885 63.5906C836.587 63.2774 836.891 65.8524 835.381 66.0612L832.98 66.6759ZM842.583 64.5185C840.982 64.8317 840.588 62.3611 842.188 62.0479L844.589 61.642C846.291 61.3288 846.685 63.7994 845.085 64.1126L842.583 64.5185ZM852.377 62.7671C850.776 63.0802 850.28 60.6097 851.982 60.2965L854.383 59.8905C855.983 59.5774 856.479 62.1523 854.777 62.4655L852.377 62.7671ZM519.406 162.379C516.6 165.058 517.412 164.745 510.909 162.692C505.206 160.941 507.911 160.222 502.805 163.307C498.207 165.986 490.701 168.863 487.207 171.02C488.503 174.001 499.706 183.779 502.411 187.792C501.408 188.303 500.607 188.616 499.514 189.126C497.812 190.054 498.218 190.054 496.212 188.813C491.817 186.238 477.717 177.898 474.911 176.773C471.215 178.42 461.409 183.57 458.017 183.361C456.417 183.257 453.813 182.747 454.32 180.682C455.616 175.637 464.419 172.864 470.121 170.289C472.42 169.257 471.823 169.466 472.319 166.891C472.916 164.014 476.726 143.948 477.616 142.916C477.92 142.603 481.11 141.164 481.718 140.956C482.023 142.811 482.226 144.76 482.316 146.72L483.319 158.25C483.319 160.001 483.623 162.263 483.916 163.91C486.52 162.669 489.112 161.439 491.817 160.21C505.217 153.622 502.715 158.052 505.916 150.641C507.719 146.523 507.618 144.053 511.619 144.667C510.909 152.914 513.106 158.064 519.406 162.379ZM516.51 152.195C515.011 152.705 515.608 155.072 517.31 154.666L519.609 153.842C521.007 153.425 520.511 150.966 518.809 151.371L516.51 152.195ZM776.989 207.557C778.285 208.694 779.683 206.629 778.488 205.608L777.485 204.785C776.088 203.648 774.69 205.713 775.885 206.745L776.989 207.557ZM770.092 201.897C771.388 202.929 772.887 200.969 771.692 199.936L769.698 198.289C768.401 197.257 766.902 199.322 768.199 200.342L770.092 201.897ZM762.293 195.726C763.488 196.758 765.088 194.798 763.792 193.673L761.797 192.13C760.501 191.202 758.901 193.163 760.298 194.195L762.293 195.726ZM754.291 189.752C755.689 190.785 756.996 188.523 755.689 187.699L753.592 186.261C752.195 185.229 750.887 187.502 752.195 188.314L754.291 189.752ZM746.086 184.092C747.484 185.02 748.791 182.863 747.484 181.935L745.387 180.601C743.99 179.673 742.592 181.738 743.99 182.665L746.086 184.092ZM737.791 178.641C739.087 179.464 740.485 177.411 738.986 176.483L736.89 175.149C735.594 174.326 734.196 176.379 735.594 177.307L737.791 178.641ZM729.192 173.491C730.792 174.314 731.795 172.052 730.488 171.229L728.29 169.999C726.791 169.176 725.687 171.438 727.096 172.261L729.192 173.491ZM720.593 168.654C722.092 169.373 723.095 167.111 721.697 166.392L719.5 165.151C718.001 164.432 716.896 166.694 718.395 167.413L720.593 168.654ZM711.689 164.13C713.188 164.849 714.293 162.588 712.782 161.764L710.585 160.732C709.187 160.013 707.981 162.17 709.48 162.994L711.689 164.13ZM702.797 159.908C704.397 160.523 705.197 158.157 703.699 157.542L701.399 156.51C699.9 155.895 698.999 158.261 700.498 158.876L702.797 159.908ZM684.393 152.497C686.094 153.007 686.59 150.536 685.193 150.13L682.792 149.307C681.09 148.797 680.594 151.267 681.992 151.673L684.393 152.497ZM674.993 149.411C676.492 149.922 677.191 147.451 675.692 146.941L673.291 146.222C671.691 145.804 670.992 148.275 672.592 148.692L674.993 149.411ZM665.492 146.744C666.89 147.149 667.791 144.795 666.09 144.273L663.689 143.658C661.886 143.252 661.593 145.816 663.092 146.129L665.492 146.744ZM655.901 144.377C657.502 144.69 657.896 142.22 656.397 141.907L653.895 141.396C652.295 141.083 651.799 143.554 653.388 143.867L655.901 144.377ZM646.197 142.521C647.696 142.835 648.294 140.364 646.592 139.947C645.792 139.842 644.89 139.633 644.09 139.541C642.591 139.227 641.994 141.698 643.695 142.116C644.496 142.208 645.397 142.313 646.197 142.521ZM636.403 140.979C638.105 141.188 638.308 138.613 636.708 138.508L634.307 138.195C632.605 137.986 632.403 140.561 634.003 140.666L636.403 140.979ZM626.598 139.947C628.199 140.051 628.503 137.58 626.801 137.372L624.299 137.163C622.8 136.954 622.406 139.529 624.198 139.738L626.598 139.947ZM616.804 139.227C618.506 139.332 618.405 136.757 616.906 136.757L614.404 136.652C612.702 136.548 612.702 139.123 614.302 139.123L616.804 139.227ZM606.898 139.019C608.498 139.019 608.6 136.444 606.898 136.444C606.098 136.444 605.196 136.444 604.396 136.444C602.897 136.444 602.694 139.019 604.396 139.019C605.309 139.019 606.098 139.019 606.898 139.019ZM597.002 139.227C598.806 139.019 598.501 136.548 596.901 136.652L594.5 136.757C592.799 136.861 593.002 139.436 594.602 139.332L597.002 139.227ZM587.209 139.738C588.809 139.633 588.606 137.058 587.006 137.163L584.504 137.372C582.903 137.476 583.106 140.051 584.707 139.947L587.209 139.738ZM577.403 140.666C578.902 140.561 578.801 137.986 577.099 138.195C576.299 138.299 575.397 138.404 574.597 138.508C573.098 138.613 573.2 141.188 574.901 140.979C575.702 140.874 576.502 140.77 577.403 140.666ZM567.61 142C569.311 141.686 568.714 139.227 567.215 139.529L564.702 139.842C563.101 140.26 563.597 142.73 565.096 142.417L567.61 142ZM557.804 143.751C559.405 143.438 559.01 140.874 557.41 141.176L554.908 141.686C553.409 142 553.803 144.47 555.404 144.157L557.804 143.751ZM548.202 145.711C549.701 145.502 549.307 142.939 547.605 143.241L545.204 143.855C543.502 144.273 544.303 146.732 545.801 146.326L548.202 145.711ZM538.611 148.182C540.211 147.671 539.513 145.201 537.912 145.711L535.512 146.326C533.911 146.732 534.61 149.202 536.21 148.797L538.611 148.182ZM529.009 150.861C530.609 150.455 530.012 147.88 528.31 148.391L526.011 149.11C524.512 149.516 525.008 151.986 526.71 151.58L529.009 150.861ZM976.767 138.613C975.268 139.123 975.865 141.489 977.567 141.083L979.866 140.26C981.264 139.842 980.869 137.383 979.066 137.894L976.767 138.613ZM1237.25 194.079C1238.54 195.111 1240.04 193.047 1238.75 192.119L1237.74 191.191C1236.34 190.054 1234.95 192.223 1236.14 193.151L1237.25 194.079ZM1230.35 188.419C1231.66 189.451 1233.14 187.386 1231.95 186.366L1229.94 184.823C1228.65 183.791 1227.14 185.751 1228.44 186.783L1230.35 188.419ZM1222.55 182.144C1223.74 183.176 1225.35 181.216 1224.05 180.183L1222.05 178.641C1220.76 177.608 1219.16 179.569 1220.56 180.694L1222.55 182.144ZM1214.55 176.274C1215.95 177.202 1217.25 175.045 1215.95 174.117L1213.95 172.679C1212.45 171.751 1211.14 173.92 1212.55 174.836L1214.55 176.274ZM1206.35 170.51C1207.75 171.438 1209.05 169.28 1207.75 168.352L1205.66 167.018C1204.26 166.091 1202.95 168.26 1204.26 169.176L1206.35 170.51ZM1198.05 165.058C1199.36 165.986 1200.75 163.922 1199.36 162.901L1197.16 161.567C1195.96 160.743 1194.46 162.796 1195.96 163.829L1198.05 165.058ZM1189.55 159.908C1191.05 160.732 1192.05 158.47 1190.76 157.751L1188.56 156.417C1187.06 155.698 1185.96 157.96 1187.36 158.679L1189.55 159.908ZM1180.86 155.072C1182.36 155.791 1183.46 153.633 1181.95 152.81L1179.76 151.673C1178.26 150.85 1177.25 153.216 1178.65 153.935L1180.86 155.072ZM1171.96 150.548C1173.46 151.267 1174.56 149.005 1173.06 148.286L1170.86 147.149C1169.47 146.43 1168.27 148.692 1169.76 149.411L1171.96 150.548ZM1163.05 146.326C1164.65 146.941 1165.45 144.575 1163.96 143.96L1161.76 142.927C1160.16 142.313 1159.26 144.783 1160.75 145.294L1163.05 146.326ZM1153.86 142.521C1155.36 143.136 1156.35 140.77 1154.76 140.051L1152.46 139.227C1150.96 138.613 1150.06 140.979 1151.56 141.594L1153.86 142.521ZM1144.66 139.019C1146.36 139.529 1146.86 136.966 1145.46 136.548L1143.06 135.725C1141.36 135.214 1140.86 137.685 1142.26 138.195L1144.66 139.019ZM1135.26 135.829C1136.86 136.339 1137.46 133.88 1135.96 133.463L1133.56 132.744C1131.96 132.233 1131.26 134.704 1132.86 135.11L1135.26 135.829ZM1125.76 133.161C1127.16 133.567 1128.06 131.201 1126.36 130.691L1123.96 130.076C1122.15 129.67 1121.85 132.233 1123.36 132.546L1125.76 133.161ZM1116.16 130.888C1117.76 131.201 1118.15 128.626 1116.65 128.313L1114.15 127.802C1112.55 127.489 1112.15 129.96 1113.76 130.273L1116.16 130.888ZM1106.47 128.939C1107.96 129.252 1108.57 126.782 1106.86 126.469C1106.06 126.26 1105.26 126.155 1104.36 125.958C1102.96 125.749 1102.26 128.22 1103.96 128.533C1104.87 128.626 1105.67 128.835 1106.47 128.939ZM1096.66 127.396C1098.36 127.605 1098.57 125.135 1096.96 124.926L1094.56 124.613C1092.86 124.404 1092.66 126.979 1094.26 127.083L1096.66 127.396ZM1086.87 126.364C1088.47 126.573 1088.76 123.998 1087.07 123.789L1084.57 123.58C1083.07 123.476 1082.66 125.947 1084.47 126.155L1086.87 126.364ZM1077.06 125.749C1078.76 125.749 1078.66 123.174 1077.16 123.174L1074.66 123.07C1072.96 123.07 1072.96 125.541 1074.56 125.645L1077.06 125.749ZM1067.17 125.436C1068.77 125.436 1068.87 122.966 1067.17 122.861C1066.37 122.861 1065.46 122.861 1064.66 122.861C1063.17 122.861 1062.96 125.436 1064.66 125.436C1065.57 125.436 1066.37 125.436 1067.17 125.436ZM1057.27 125.645C1059.07 125.541 1058.77 122.966 1057.17 123.07L1054.77 123.174C1053.07 123.279 1053.27 125.854 1054.87 125.749L1057.27 125.645ZM1047.47 126.155C1049.07 126.051 1048.96 123.476 1047.26 123.685L1044.76 123.894C1043.16 123.998 1043.36 126.469 1044.96 126.364L1047.47 126.155ZM1037.67 127.188C1039.17 126.979 1039.07 124.404 1037.37 124.613C1036.57 124.717 1035.67 124.821 1034.87 124.926C1033.37 125.03 1033.47 127.605 1035.17 127.396C1035.97 127.292 1036.77 127.188 1037.67 127.188ZM1027.87 128.417C1029.57 128.104 1028.96 125.645 1027.47 125.947L1024.97 126.353C1023.37 126.666 1023.87 129.136 1025.36 128.823L1027.87 128.417ZM1018.06 130.169C1019.66 129.855 1019.27 127.396 1017.67 127.698L1015.18 128.104C1013.68 128.417 1014.07 130.981 1015.67 130.679L1018.06 130.169ZM1008.47 132.233C1009.97 131.92 1009.57 129.357 1007.87 129.763L1005.47 130.273C1003.77 130.783 1004.57 133.161 1006.07 132.744L1008.47 132.233ZM998.868 134.599C1000.47 134.089 999.77 131.723 998.271 132.129L995.769 132.744C994.168 133.254 994.867 135.62 996.468 135.214L998.868 134.599ZM989.367 137.267C990.866 136.861 990.269 134.391 988.668 134.797L986.268 135.516C984.769 135.922 985.265 138.497 986.967 137.986L989.367 137.267Z" fill="#CCCCCC"/>
</g>
<g opacity="0.3" clip-path="url(#clip1_380_1085)">
<path fill-rule="evenodd" clip-rule="evenodd" d="M262.391 101.324C263.472 97.6059 262.936 98.2772 269.547 96.7233C275.414 95.4791 273.379 97.3639 276.31 92.2296C278.9 87.5197 284.015 81.3659 285.962 77.7507C283.339 75.8228 268.758 72.9506 264.409 70.8274C265.022 69.8839 265.507 69.1222 266.198 68.1336C267.26 66.5695 266.909 66.7724 269.261 66.8341C274.355 66.8664 290.693 66.9431 293.728 66.6104C296.106 63.3356 302.022 53.9731 305.065 52.4577C306.503 51.7479 308.96 50.7978 309.553 52.8394C310.954 57.857 304.717 64.6588 301.066 69.7402C299.591 71.7837 300.056 71.3947 300.914 73.8726C301.773 76.5777 308.569 95.9449 308.314 97.2841C308.129 97.7526 306.112 100.457 305.741 101.033C304.55 99.5779 303.358 97.8957 302.29 96.2488L295.708 86.856C294.781 85.2488 293.438 83.5326 292.309 82.1623C290.721 84.6192 289.045 86.8997 287.369 89.4073C279.058 101.813 278.922 96.7756 279.943 104.744C280.44 109.212 281.676 111.351 277.991 112.769C274.483 105.272 270.01 101.921 262.391 101.324ZM400.819 113.495C397.127 114.314 397.778 113.818 395.816 120.428C394.068 126.192 396.094 124.313 390.728 126.808C386.026 129.054 379.455 133.678 375.694 135.367C374.011 132.656 372.396 117.664 370.67 113.075C369.714 113.627 368.943 114.072 367.898 114.675C366.249 115.627 366.496 115.244 366.266 117.64C365.921 122.835 364.79 139.292 364.105 142.299C360.605 144.441 351.062 149.709 349.237 152.544C348.438 153.956 347.359 156.481 349.305 157.259C354.119 158.994 361.329 153.291 366.592 150.011C368.759 148.76 368.284 149.154 370.707 150.126C373.311 151.234 391.818 159.689 393.108 159.533C393.589 159.376 396.485 157.584 397.002 157.285C395.723 155.881 394.195 154.633 392.662 153.375L383.886 145.973C382.457 144.896 380.773 143.377 379.511 142.204C382.071 140.846 384.537 139.302 387.134 137.803C399.949 130.404 394.906 129.874 402.782 131.501C407.122 132.437 409.075 133.814 410.798 130.194C403.778 126.037 400.788 121.241 400.819 113.495ZM407.453 121.785C406.26 122.716 404.637 120.92 405.964 119.792L407.887 118.321C409.028 117.3 410.791 119.135 409.473 120.258L407.453 121.785ZM509.049 -127.002C508.918 -128.829 511.442 -128.853 511.556 -127.258L511.705 -125.804C511.784 -124.068 509.266 -124.034 509.234 -125.689L509.049 -127.002ZM509.825 -118.062C509.746 -119.798 512.212 -119.922 512.296 -118.176L512.471 -115.665C512.637 -113.98 510.119 -113.945 510.005 -115.54L509.825 -118.062ZM510.46 -107.968C510.346 -109.563 512.853 -109.818 512.931 -108.082L513.028 -105.526C513.142 -103.931 510.722 -103.727 510.504 -105.502L510.46 -107.968ZM510.727 -97.903C510.736 -99.6898 513.271 -99.4924 513.251 -97.9271L513.259 -95.3203C513.25 -93.5335 510.803 -93.7816 510.829 -95.3369L510.727 -97.903ZM510.766 -87.8271C510.828 -89.5235 513.31 -89.4165 513.248 -87.7201L513.205 -85.2037C513.231 -83.558 510.661 -83.6143 510.722 -85.3107L510.766 -87.8271ZM510.499 -77.6951C510.525 -79.2503 513.043 -79.2844 512.982 -77.588L512.85 -75.0209C512.824 -73.4657 510.306 -73.4316 510.403 -75.2691L510.499 -77.6951ZM509.906 -67.7228C510.108 -69.3795 512.519 -68.9902 512.405 -67.3842L512.221 -64.9075C512.019 -63.2508 509.52 -63.5893 509.722 -65.246L509.906 -67.7228ZM509.007 -57.6944C509.209 -59.3511 511.62 -58.9618 511.428 -57.3107L511.156 -54.7833C510.954 -53.1266 508.491 -53.6063 508.745 -55.1726L509.007 -57.6944ZM507.837 -48.1123C508.362 -49.0051 509.721 -48.8385 510.153 -47.9095C510.548 -47.4278 510.531 -46.4667 509.968 -46.0213L509.791 -44.7272C509.537 -43.1609 507.038 -43.4994 507.318 -45.2012L507.337 -45.5739L506.944 -45.467C505.25 -45.1992 504.936 -47.7499 506.541 -47.967L507.837 -48.1123ZM506.043 -37.8083C506.466 -39.4861 508.806 -38.8145 508.48 -37.1931L508.022 -34.7857C507.654 -33.0332 505.258 -33.7795 505.637 -35.3105L506.043 -37.8083ZM504.003 -27.9518C504.345 -29.5689 506.854 -29.0088 506.44 -27.3367L505.895 -24.8786C505.553 -23.2616 503.131 -23.8723 503.457 -25.4937L504.003 -27.9518ZM501.631 -18.2652C502.185 -19.8976 504.551 -19.0002 504.033 -17.5089L503.435 -15.1412C502.933 -13.4183 500.567 -14.3157 500.945 -15.8468L501.631 -18.2652ZM498.891 -8.6072C499.367 -10.1946 501.759 -9.43265 501.293 -7.85091L500.519 -5.38177C500.053 -3.80003 497.599 -4.64673 498.153 -6.27918L498.891 -8.6072ZM495.783 0.795018C496.223 -0.651231 498.615 0.110688 498.055 1.73309L497.229 4.11184C496.587 5.79501 494.292 4.61534 494.951 3.1637L495.783 0.795018ZM492.218 10.2193C492.912 8.62652 495.155 9.71578 494.496 11.1674L493.618 13.4557C492.924 15.0485 490.682 13.9593 491.34 12.5076L492.218 10.2193ZM488.363 19.3427C488.934 17.9418 491.3 18.8392 490.6 20.4219C490.25 21.2133 489.906 22.0147 489.503 22.7156C488.933 24.1166 486.567 23.2192 487.267 21.6364C487.607 20.8507 488.003 20.1397 488.363 19.3427ZM484.087 28.3471C484.834 26.8447 487.009 28.2005 486.289 29.5674L485.14 31.7707C484.394 33.2731 482.131 31.968 482.939 30.5504L484.087 28.3471ZM479.437 37.0856C480.148 35.7244 482.437 36.8939 481.603 38.447L480.314 40.6107C479.604 41.9719 477.315 40.8023 478.149 39.2492L479.437 37.0856ZM474.373 45.7151C475.347 44.2017 477.399 45.7494 476.548 47.0709L475.26 49.2345C474.321 50.6068 472.181 49.1099 473.032 47.7883L474.373 45.7151ZM469.012 54.0337C469.863 52.7122 472.038 54.068 471.151 55.5306C470.615 56.2019 470.213 56.9029 469.676 57.5742C468.826 58.8958 466.738 57.4892 467.677 56.117C468.079 55.416 468.615 54.7447 469.012 54.0337ZM463.334 62.1869C464.413 60.8544 466.289 62.5034 465.386 63.7346L463.911 65.7782C462.832 67.1107 460.91 65.3813 461.947 64.1798L463.334 62.1869ZM457.356 70.0449C458.346 68.7631 460.31 70.3614 459.32 71.6433L457.705 73.6472C456.802 74.8783 454.75 73.3307 455.829 71.9981L457.356 70.0449ZM451.049 77.7175C452.092 76.526 454.056 78.1244 452.925 79.3666C452.389 80.0379 451.847 80.6991 451.258 81.28C450.355 82.5112 448.391 80.9128 449.47 79.5802C450.012 78.919 450.513 78.3888 451.049 77.7175ZM444.452 85.0892C445.722 83.8867 447.381 85.7683 446.292 86.8794L444.573 88.7025C443.39 89.8542 441.643 88.0234 442.82 86.8615L444.452 85.0892ZM437.615 92.2504C438.793 91.0886 440.545 92.9295 439.368 94.0913L437.596 95.824C436.501 96.9251 434.667 95.1449 435.844 93.9831L437.615 92.2504ZM430.492 99.0951C431.588 97.9941 433.51 99.7235 432.297 101.026L430.386 102.719C429.068 103.842 427.517 101.764 428.721 100.828L430.492 99.0951ZM423.255 105.765C424.485 104.693 426.062 106.636 424.832 107.707L422.956 109.259C421.639 110.381 420.062 108.439 421.291 107.367L423.255 105.765ZM415.649 112.178C416.879 111.107 418.543 112.999 417.226 114.121L415.35 115.673C414.121 116.744 412.404 114.762 413.721 113.64L415.649 112.178ZM654.204 -140.573C655.295 -144.297 654.748 -143.62 661.407 -145.093C667.221 -146.428 665.238 -144.453 668.117 -149.677C670.76 -154.297 675.822 -160.541 677.769 -164.156C675.156 -166.09 660.565 -168.956 656.216 -171.079C656.829 -172.023 657.366 -172.694 658.057 -173.683C659.067 -175.337 658.716 -175.135 661.074 -175.063C666.168 -175.03 682.548 -174.858 685.541 -175.287C687.919 -178.561 693.835 -187.924 696.878 -189.439C698.316 -190.149 700.826 -191.009 701.419 -188.967C702.819 -183.949 696.582 -177.148 692.931 -172.066C691.456 -170.023 691.869 -170.502 692.727 -168.024C693.648 -165.234 700.382 -145.952 700.127 -144.613C700.02 -144.189 697.977 -141.349 697.554 -140.864C696.363 -142.319 695.213 -143.905 694.155 -145.558L687.521 -155.041C686.646 -156.558 685.251 -158.364 684.174 -159.644C682.54 -157.268 680.91 -154.907 679.182 -152.49C670.871 -140.084 670.822 -145.172 671.756 -137.153C672.253 -132.685 673.577 -130.596 669.804 -129.128C666.296 -136.625 661.817 -139.986 654.204 -140.573ZM661.804 -133.202C662.847 -134.393 661.147 -136.144 659.876 -134.941L658.297 -133.079C657.295 -132.018 658.954 -130.137 660.225 -131.339L661.804 -133.202ZM408.542 -50.9068C406.851 -51.2432 406.673 -48.7564 408.218 -48.4698L409.498 -48.2581C411.277 -47.9725 411.455 -50.4592 409.904 -50.7559L408.542 -50.9068ZM417.345 -49.4536C415.706 -49.6995 415.388 -47.2524 416.939 -46.9558L419.49 -46.5268C421.129 -46.2808 421.395 -48.8183 419.762 -49.0542L417.345 -49.4536ZM427.185 -48.0091C425.634 -48.3058 425.228 -45.808 426.913 -45.4817L429.412 -45.1432C430.998 -44.9876 431.404 -47.4854 429.678 -47.6806L427.185 -48.0091ZM437.101 -46.8369C435.375 -47.0322 435.373 -44.4197 436.917 -44.3602L439.452 -44.1628C441.178 -43.9675 441.174 -46.59 439.636 -46.6395L437.101 -46.8369ZM447.037 -46.0374C445.363 -46.1422 445.309 -43.6202 446.905 -43.4703L449.388 -43.3632C451.062 -43.2584 451.24 -45.7452 449.566 -45.85L447.037 -46.0374ZM456.946 -45.4637C455.412 -45.5289 455.228 -43.0521 456.99 -42.998L459.473 -42.891C461.007 -42.8258 461.191 -45.3026 459.516 -45.4074L456.946 -45.4637ZM466.968 -45.3034C465.171 -45.2164 465.433 -42.7561 466.977 -42.6966L469.495 -42.7306C471.205 -42.7669 471.03 -45.278 469.399 -45.2868L466.968 -45.3034ZM476.834 -45.4142C475.176 -45.2876 475.438 -42.8272 477.008 -42.9032L479.532 -42.9272C481.19 -43.0539 481.015 -45.565 479.358 -45.4383L476.834 -45.4142ZM486.806 -45.9485C485.149 -45.8218 485.323 -43.3108 487.043 -43.3527L489.462 -43.5575C491.032 -43.6335 490.998 -46.1048 489.288 -46.0685L486.806 -45.9485ZM496.618 -46.7382C494.925 -46.4704 495.415 -44.0211 497.021 -44.2382L499.528 -44.4938C501.133 -44.7109 500.731 -47.2109 499.126 -46.9938L496.618 -46.7382ZM516.263 -49.5217C514.534 -49.1128 515.34 -46.7252 516.753 -47.0724L519.244 -47.5595C520.973 -47.9684 520.167 -50.356 518.754 -50.0088L516.263 -49.5217ZM525.946 -51.5494C524.392 -51.2419 525.023 -48.753 526.576 -49.0605L529.014 -49.638C530.609 -50.0765 529.979 -52.5655 528.384 -52.1269L525.946 -51.5494ZM535.508 -53.9895C534.094 -53.6424 534.491 -51.1524 536.226 -51.5513L538.612 -52.2192C540.377 -52.7692 539.349 -55.1357 537.894 -54.6574L535.508 -53.9895ZM544.997 -56.7359C543.454 -56.2069 544.348 -53.8701 545.803 -54.3483L548.225 -55.1574C549.767 -55.6863 548.961 -58.0739 547.429 -57.5505L544.997 -56.7359ZM554.328 -59.9805C552.874 -59.5023 553.592 -57.064 555.274 -57.5533C556.019 -57.863 556.905 -58.133 557.644 -58.4528C559.099 -58.931 558.381 -61.3693 556.698 -60.88C555.959 -60.5602 555.126 -60.1998 554.328 -59.9805ZM563.582 -63.5415C562.003 -62.8714 563.115 -60.54 564.553 -61.2498L566.789 -62.1789C568.367 -62.849 567.255 -65.1804 565.817 -64.4706L563.582 -63.5415ZM572.589 -67.5501C571.151 -66.8403 572.123 -64.5486 573.701 -65.2187L575.972 -66.2889C577.375 -66.8575 576.429 -69.2848 574.773 -68.5696L572.589 -67.5501ZM581.431 -71.8243C579.905 -71.0638 581.28 -68.8845 582.578 -69.634L584.797 -70.7946C586.323 -71.5551 585.036 -73.7851 583.65 -72.9849L581.431 -71.8243ZM590.114 -76.5967C588.728 -75.7966 589.928 -73.5158 591.402 -74.3668C592.095 -74.7668 592.876 -75.2177 593.569 -75.6178C594.867 -76.3672 593.755 -78.6987 592.281 -77.8478C591.491 -77.3913 590.807 -76.9968 590.114 -76.5967ZM598.58 -81.7252C597.122 -80.6428 598.621 -78.6554 599.955 -79.5459L601.982 -80.8366C603.403 -81.778 601.94 -83.9065 600.606 -83.0159L598.58 -81.7252ZM606.806 -87.0642C605.472 -86.1736 606.936 -84.045 608.269 -84.9356L610.332 -86.3674C611.665 -87.258 610.202 -89.3866 608.869 -88.496L606.806 -87.0642ZM614.834 -92.7703C613.588 -91.9305 614.963 -89.7512 616.333 -90.7829C616.973 -91.2734 617.702 -91.8146 618.343 -92.3051C619.589 -93.145 618.213 -95.3243 616.844 -94.2926C616.203 -93.8021 615.562 -93.3116 614.834 -92.7703ZM622.649 -98.8225C621.331 -97.7003 623.078 -95.8695 624.225 -96.8801L626.245 -98.408C627.423 -99.5698 625.758 -101.461 624.616 -100.441L622.649 -98.8225ZM630.264 -105.242C629.035 -104.17 630.658 -102.148 631.893 -103.209L633.805 -104.902C634.947 -105.923 633.37 -107.865 632.14 -106.794L630.264 -105.242ZM637.6 -111.741C636.406 -110.81 638.03 -108.788 639.353 -109.9L641.124 -111.632C642.389 -112.845 640.467 -114.574 639.372 -113.473L637.6 -111.741ZM644.671 -118.676C643.54 -117.434 645.38 -115.643 646.511 -116.885L648.283 -118.618C649.466 -119.77 647.625 -121.56 646.442 -120.408L644.671 -118.676ZM651.647 -125.797C650.464 -124.645 652.269 -122.714 653.487 -124.007L655.119 -125.779C656.214 -126.88 654.549 -128.772 653.279 -127.57L651.647 -125.797ZM270.001 108.689C271.044 107.498 269.344 105.747 268.073 106.95L266.494 108.813C265.492 109.873 267.063 111.805 268.37 110.462L270.001 108.689ZM16.6862 190.894C15.0476 190.648 14.7818 193.186 16.3682 193.341L17.7008 193.643C19.4795 193.929 19.6053 191.352 18.1067 191.145L16.6862 190.894ZM25.4897 192.347C23.8414 192.107 23.5853 194.639 25.1303 194.925L27.6389 195.258C29.2775 195.504 29.6053 193.052 27.9569 192.811L25.4897 192.347ZM35.3814 193.882C33.8306 193.585 33.4248 196.083 35.0634 196.329L37.5623 196.668C39.2009 196.914 39.6068 194.416 37.8339 194.14L35.3814 193.882ZM45.2458 194.964C43.5716 194.859 43.518 197.381 45.1142 197.531L47.5609 197.779C49.323 197.833 49.3707 195.301 47.6925 195.212L45.2458 194.964ZM55.2239 195.859C53.5497 195.755 53.5059 198.271 55.0923 198.427L57.5747 198.534C59.2489 198.639 59.2967 196.106 57.7063 195.967L55.2239 195.859ZM65.1431 196.428C63.5469 196.278 63.369 198.764 65.0896 198.95L67.6598 199.006C69.1062 199.122 69.3778 196.594 67.5636 196.45L65.1431 196.428ZM75.0774 196.639C73.3675 196.675 73.6297 199.135 75.1117 199.11L77.682 199.166C79.3397 199.04 79.1653 196.528 77.5857 196.61L75.0774 196.639ZM85.021 196.483C83.3633 196.609 83.4855 199.03 85.2052 198.988L87.6768 198.874C89.3867 198.837 89.0723 196.287 87.5024 196.363L85.021 196.483ZM94.9935 195.948C93.3358 196.075 93.5102 198.586 95.1679 198.459L97.6395 198.345C99.2094 198.269 99.1131 195.713 97.4651 195.834L94.9935 195.948ZM104.815 195.153C103.122 195.421 103.612 197.87 105.217 197.653L107.637 197.448C109.33 197.18 108.876 194.59 107.323 194.897L104.815 195.153ZM114.682 193.849C113.076 194.067 113.401 196.612 115.136 196.44L117.539 196.003C119.145 195.786 118.742 193.286 117.137 193.504L114.682 193.849ZM124.398 192.285C122.669 192.694 123.521 195.162 124.94 194.824L127.431 194.337C129.16 193.928 128.354 191.541 126.889 191.798L124.398 192.285ZM134.133 190.347C132.492 190.706 133.204 193.134 134.711 192.746L137.149 192.168C138.79 191.81 138.16 189.321 136.571 189.77L134.133 190.347ZM143.695 187.907C142.281 188.255 142.684 190.754 144.413 190.346L146.799 189.678C148.564 189.128 147.546 186.756 146.081 187.239L143.695 187.907ZM153.147 185.075C151.605 185.604 152.551 188.031 154.005 187.553L156.427 186.744C157.97 186.215 157.086 183.872 155.534 184.407L153.147 185.075ZM162.515 181.916C161.061 182.395 161.769 184.838 163.409 184.253C164.207 184.034 164.952 183.724 165.831 183.444C167.146 182.926 166.516 180.437 164.885 181.017C164.058 181.387 163.261 181.607 162.515 181.916ZM171.778 178.35C170.2 179.02 171.26 181.261 172.75 180.641L174.986 179.712C176.564 179.042 175.452 176.711 174.014 177.421L171.778 178.35ZM180.776 174.347C179.286 174.966 180.32 177.343 181.888 176.678L184.159 175.608C185.51 174.949 184.626 172.606 182.96 173.327L180.776 174.347ZM189.575 169.977C188.101 170.827 189.477 173.007 190.775 172.257L192.994 171.097C194.468 170.246 193.232 168.106 191.794 168.816L189.575 169.977ZM198.301 165.3C196.915 166.1 198.063 168.291 199.589 167.53C200.282 167.13 201.063 166.679 201.756 166.279C203.054 165.53 201.942 163.198 200.468 164.049C199.687 164.5 198.994 164.9 198.301 165.3ZM206.767 160.172C205.257 161.164 206.808 163.242 208.142 162.351L210.169 161.06C211.59 160.119 210.127 157.99 208.793 158.881L206.767 160.172ZM215.003 154.827C213.669 155.718 215.045 157.897 216.414 156.865L218.476 155.433C219.81 154.543 218.399 152.505 217.065 153.395L215.003 154.827ZM222.969 149.036C221.775 149.966 223.15 152.146 224.52 151.114C225.16 150.623 225.889 150.082 226.53 149.592C227.776 148.752 226.4 146.573 225.031 147.604C224.39 148.095 223.749 148.585 222.969 149.036ZM230.845 143.069C229.528 144.191 231.285 146.016 232.422 145.011L234.386 143.409C235.615 142.337 233.951 140.446 232.809 141.466L230.845 143.069ZM238.461 136.649C237.232 137.721 238.803 139.653 240.038 138.592L241.992 136.995C243.134 135.974 241.51 133.951 240.275 135.013L238.461 136.649ZM245.735 130.066C244.593 131.087 246.217 133.109 247.488 131.907L249.311 130.264C250.53 128.972 248.648 127.312 247.559 128.424L245.735 130.066ZM252.868 123.216C251.737 124.458 253.525 126.158 254.62 125.056L256.48 123.273C257.61 122.031 255.822 120.331 254.639 121.483L252.868 123.216ZM259.762 116.155C258.667 117.256 260.419 119.097 261.602 117.945L263.322 116.122C264.417 115.021 262.7 113.039 261.481 114.332L259.762 116.155Z" fill="#CCCCCC"/>
</g>
<defs>
<clipPath id="clip0_380_1085">
<rect width="785" height="191" fill="white" transform="translate(454.25 32.981)"/>
</clipPath>
<clipPath id="clip1_380_1085">
<rect width="331" height="129" fill="white" transform="translate(351.154 112.217) rotate(150)"/>
</clipPath>
</defs>
</svg>
