<svg width="20" height="14" viewBox="0 0 20 14" fill="none" xmlns="http://www.w3.org/2000/svg">
<path d="M18.9061 4.58335C18.71 4.29562 18.4341 4.13085 18.149 4.13085H17.7204V3.70756C17.7204 2.94714 17.1803 2.32806 16.5167 2.32806H15.9515V1.54673C15.9515 1.17896 15.8233 0.820207 15.6001 0.562051C15.1561 0.0489779 14.3887 0.0489779 13.9448 0.562051C13.7213 0.82057 13.593 1.17932 13.593 1.54709V5.21288H5.92802V1.54709C5.92802 1.17932 5.80007 0.82057 5.57661 0.562411C5.13263 0.0493368 4.36524 0.0493368 3.92126 0.562411C3.6978 0.82057 3.56955 1.17932 3.56955 1.54709V2.32842H2.93572C2.63766 2.32842 2.35583 2.46003 2.1418 2.69908C1.92511 2.94245 1.8007 3.28209 1.8007 3.6304V4.13085H1.37618C1.08962 4.13085 0.812505 4.29635 0.615867 4.58515C0.429548 4.85917 0.32666 5.21937 0.32666 5.59904V7.71047C0.32666 8.09013 0.429548 8.45033 0.616162 8.72435C0.812799 9.01316 1.08992 9.17865 1.37618 9.17865H1.8007V9.67911C1.8007 10.0274 1.92511 10.3671 2.14239 10.6112C2.35583 10.8498 2.63766 10.9814 2.93572 10.9814H3.56955V11.7628C3.56955 12.1305 3.6978 12.4893 3.92097 12.7471C4.14296 13.0035 4.43688 13.1448 4.74879 13.1448C5.0607 13.1448 5.35462 13.0035 5.57661 12.7471C5.80007 12.4889 5.92802 12.1302 5.92802 11.7628V8.09698H13.593V11.7628C13.593 12.1305 13.7213 12.4893 13.9445 12.7471C14.1664 13.0035 14.4604 13.1448 14.7723 13.1448C15.0842 13.1448 15.3781 13.0035 15.6001 12.7471C15.8233 12.4889 15.9515 12.1302 15.9515 11.7628V10.9814H16.5167C17.1803 10.9814 17.7204 10.3627 17.7204 9.60195V9.17865H18.149C18.4341 9.17865 18.71 9.01352 18.9064 8.72615C19.0921 8.45321 19.1947 8.09482 19.1947 7.71659V5.59327C19.1944 5.21505 19.0921 4.85629 18.9061 4.58335ZM1.37618 8.45754C1.26386 8.45754 1.15478 8.38831 1.06928 8.26284C0.971996 8.12042 0.916277 7.91887 0.916277 7.71047V5.59904C0.916277 5.39064 0.971996 5.18945 1.06928 5.04667C1.15478 4.92119 1.26386 4.85196 1.37618 4.85196H1.8007V8.45754H1.37618ZM2.93572 10.2603C2.78743 10.2603 2.64327 10.1943 2.54097 10.0797C2.44368 9.97044 2.39032 9.82838 2.39032 9.67911V8.8181V4.4914V3.6304C2.39032 3.48112 2.44368 3.3387 2.54038 3.23018C2.64356 3.11516 2.78743 3.04917 2.93572 3.04917H3.56955V10.2603H2.93572ZM5.33841 11.7628C5.33841 11.9355 5.27915 12.0988 5.17184 12.2228C4.95073 12.4781 4.54714 12.4781 4.32603 12.2228C4.21843 12.0988 4.15917 11.9351 4.15917 11.7628V10.6209V2.68862V1.54673C4.15917 1.37402 4.21843 1.21069 4.32574 1.08666C4.43629 0.959023 4.59048 0.885829 4.74879 0.885829C4.9071 0.885829 5.06129 0.959023 5.17184 1.08666C5.27915 1.21069 5.33841 1.37438 5.33841 1.54709V5.57344V7.73679V11.7628ZM5.92802 7.37587V5.93364H13.593V7.37587H5.92802ZM15.3619 11.7628C15.3619 11.9355 15.3026 12.0988 15.1953 12.2228C14.9742 12.4781 14.5706 12.4781 14.3495 12.2228C14.2419 12.0988 14.1827 11.9351 14.1827 11.7628V7.73642V5.57308V1.54709C14.1827 1.37438 14.2419 1.21105 14.3492 1.08702C14.4598 0.959385 14.614 0.886191 14.7723 0.886191C14.9306 0.886191 15.0848 0.959385 15.1953 1.08702C15.3026 1.21069 15.3619 1.37438 15.3619 1.54709V2.68898V10.6212V11.7628ZM17.1307 9.60195C17.1307 9.96503 16.8554 10.2603 16.5167 10.2603H15.9515V3.04918H16.5167C16.8551 3.04918 17.1307 3.34447 17.1307 3.70755V4.4914V8.8181V9.60195ZM18.6048 7.71623C18.6048 7.92319 18.5494 8.12258 18.4533 8.26428C18.3684 8.38903 18.2602 8.45754 18.149 8.45754H17.7204V4.85196H18.149C18.2602 4.85196 18.3684 4.92047 18.4533 5.04522C18.5497 5.18656 18.6048 5.38631 18.6048 5.59327V7.71623Z" fill="#125777"/>
</svg>
