<svg width="785" height="191" viewBox="0 0 785 191" fill="none" xmlns="http://www.w3.org/2000/svg">
<g opacity="0.3" clip-path="url(#clip0_380_1749)">
<path fill-rule="evenodd" clip-rule="evenodd" d="M487.691 115.641C484.896 118.321 485.697 118.007 479.194 116.047C473.491 114.191 476.196 113.577 471.09 116.558C466.492 119.341 458.986 122.113 455.492 124.271C456.799 127.252 467.991 137.03 470.696 141.043C469.693 141.553 468.892 141.971 467.799 142.481C466.097 143.305 466.503 143.305 464.497 142.075C460.102 139.5 445.991 131.265 443.196 130.036C439.5 131.683 429.694 136.833 426.302 136.624C424.702 136.519 422.098 136.113 422.605 134.049C423.901 129.003 432.704 126.231 438.406 123.656C440.705 122.624 440.108 122.728 440.604 120.153C441.213 117.381 445.011 97.2105 445.901 96.1782C446.295 95.865 449.395 94.5312 450.003 94.218C450.308 96.0738 450.499 98.1268 450.601 100.087L451.604 111.512C451.604 113.368 451.908 115.525 452.201 117.277C454.805 115.943 457.397 114.806 460.102 113.472C473.502 106.884 471.101 111.315 474.201 103.903C476.004 99.7855 476.004 97.3149 479.904 97.9296C479.194 106.177 481.391 111.315 487.691 115.641ZM373.895 35.8868C377.501 37.0235 376.69 37.1279 381.694 32.3839C386.089 28.2663 383.396 28.8811 389.29 29.403C394.486 29.809 402.488 29.0898 406.59 29.5074C406.692 32.6971 400.594 46.4883 399.794 51.325C400.899 51.325 401.789 51.325 402.995 51.325C404.9 51.325 404.494 51.5338 405.891 49.5736C408.788 45.2472 417.996 31.5604 420.092 29.2986C424.194 29.1942 435.093 29.403 438.091 27.8604C439.488 27.0368 441.686 25.3898 440.39 23.7427C437.088 19.8339 427.993 21.1678 421.794 21.3765C419.292 21.3765 419.9 21.2722 418.289 19.2191C416.587 16.9573 404.787 0.382433 403.592 -0.127921C403.096 -0.232311 399.693 -0.127921 399.095 -0.127921C399.501 1.72791 400.2 3.57215 400.899 5.42798L404.798 16.2266C405.497 17.8737 406.196 20.0311 406.703 21.6781C403.806 21.5737 400.899 21.6781 397.901 21.6781C383.103 21.6781 387.205 24.659 381.198 19.3119C377.907 16.331 376.904 14.162 373.602 16.4354C377.603 23.5455 377.795 29.1942 373.895 35.8868ZM372.295 25.3898C373.794 25.181 374.301 27.5472 372.588 27.8604L370.187 28.1735C368.688 28.4867 368.079 26.0161 369.781 25.703L372.295 25.3898ZM159.917 190.049C159.117 191.696 156.919 190.455 157.618 189.016L158.215 187.682C159.015 186.14 161.213 187.369 160.413 188.819L159.917 190.049ZM163.715 181.918C162.915 183.46 160.717 182.335 161.517 180.781L162.622 178.519C163.32 176.977 165.518 178.206 164.819 179.644L163.715 181.918ZM168.212 172.859C167.513 174.297 165.214 173.265 166.014 171.722L167.209 169.46C167.907 168.022 170.105 169.054 169.406 170.702L168.212 172.859ZM173.013 164.009C172.111 165.552 170.015 164.113 170.815 162.768L172.111 160.506C173.013 158.963 175.008 160.402 174.208 161.736L173.013 164.009ZM178.017 155.263C177.115 156.702 175.019 155.368 175.921 153.929L177.217 151.772C178.017 150.334 180.215 151.668 179.313 153.106L178.017 155.263ZM183.314 146.622C182.514 147.956 180.316 146.726 181.218 145.288L182.615 143.131C183.415 141.797 185.613 143.026 184.61 144.569L183.314 146.622ZM188.814 138.282C187.811 139.616 185.917 138.074 186.819 136.74L188.217 134.687C189.22 133.353 191.214 134.896 190.211 136.229L188.814 138.282ZM194.607 130.047C193.604 131.381 191.71 129.838 192.702 128.505L194.201 126.451C195.204 125.118 197.098 126.765 196.094 127.994L194.607 130.047ZM200.411 122.334C199.509 122.844 198.416 122.021 198.506 121C198.405 120.385 198.901 119.562 199.611 119.457L200.411 118.425C201.414 117.196 203.409 118.738 202.316 120.072L202.113 120.385L202.507 120.49C204.108 121.104 203.105 123.471 201.606 122.856L200.411 122.334ZM207.117 114.307C205.911 115.548 204.22 113.797 205.314 112.556L206.914 110.7C208.109 109.366 209.81 111.21 208.717 112.347L207.117 114.307ZM213.811 106.791C212.707 108.021 210.814 106.281 212.008 105.04L213.71 103.184C214.814 101.954 216.606 103.694 215.513 104.935L213.811 106.791ZM220.709 99.5883C219.413 100.725 217.812 98.7648 219.007 97.7325L220.709 95.981C222.005 94.7399 223.605 96.7002 222.512 97.8369L220.709 99.5883ZM227.911 92.5941C226.705 93.7308 225.014 91.875 226.209 90.7383L228.113 88.9869C229.308 87.8502 231.01 89.8104 229.714 90.9471L227.911 92.5941ZM235.304 86.0059C234.199 87.0382 232.509 85.1824 233.805 84.0573L235.71 82.4102C237.107 81.2735 238.505 83.4426 237.209 84.3705L235.304 86.0059ZM243.103 79.6265C241.705 80.6588 240.308 78.5942 241.604 77.6663L243.509 76.1236C244.906 75.0913 246.304 77.1559 245.008 78.0838L243.103 79.6265ZM251.003 73.653C249.809 74.581 248.208 72.6207 249.606 71.6C250.305 71.0897 251.003 70.5677 251.702 70.1618C252.897 69.2338 254.497 71.1941 253.1 72.2148C252.412 72.7251 251.714 73.1427 251.003 73.653ZM259.208 67.9927C257.811 68.9207 256.605 66.6589 257.912 65.8353L260.008 64.5015C261.406 63.5735 262.713 65.8353 261.305 66.6589L259.208 67.9927ZM267.605 62.75C266.309 63.5735 264.911 61.4161 266.41 60.4882L268.608 59.2587C269.904 58.4352 271.301 60.5926 269.802 61.5205L267.605 62.75ZM276.305 57.8089C274.705 58.6324 273.702 56.2662 275.099 55.5471L277.297 54.3176C278.796 53.5984 279.901 55.9646 278.503 56.6838L276.305 57.8089ZM285.107 53.2853C283.71 54.0044 282.504 51.7426 284.003 50.9191C284.803 50.6059 285.502 50.1999 286.302 49.8868C287.7 49.1676 288.804 51.4294 287.305 52.1486C286.606 52.5545 285.806 52.8677 285.107 53.2853ZM294.101 49.0633C292.501 49.678 291.701 47.3118 293.098 46.6971L295.397 45.6648C296.998 45.05 297.798 47.509 296.299 48.0309L294.101 49.0633ZM303.208 45.2472C301.709 45.8619 300.807 43.4957 302.306 42.881L304.707 41.9531C306.104 41.3383 307.107 43.7045 305.507 44.3193L303.208 45.2472ZM312.506 41.7559C311.007 42.2663 310.105 39.9001 311.705 39.3897C312.506 39.0765 313.306 38.775 314.106 38.5662C315.503 37.9515 316.405 40.3176 314.805 40.9324C314.005 41.234 313.306 41.4427 312.506 41.7559ZM321.905 38.6706C320.203 39.0765 319.707 36.6176 321.206 36.2L323.607 35.4809C325.207 35.0749 325.805 37.5339 324.204 37.9515L321.905 38.6706ZM331.406 35.8868C329.806 36.3044 329.208 33.8338 330.809 33.4163L333.209 32.8015C334.708 32.3956 335.407 34.8545 333.806 35.2721L331.406 35.8868ZM340.997 33.5206C339.498 33.9266 338.698 31.4676 340.4 30.9457L342.902 30.4353C344.603 30.1222 344.908 32.6971 343.398 32.9059L340.997 33.5206ZM350.599 31.3632C348.999 31.6764 348.604 29.2058 350.205 28.8927L352.605 28.4867C354.307 28.1735 354.702 30.6441 353.101 30.9573L350.599 31.3632ZM360.393 29.6118C358.793 29.925 358.297 27.4544 359.999 27.1412L362.399 26.7353C364 26.4221 364.496 28.9971 362.794 29.3102L360.393 29.6118ZM27.423 129.224C24.6167 131.903 25.4281 131.59 18.9252 129.537C13.2224 127.785 15.9273 127.066 10.8218 130.152C6.22352 132.831 -1.28252 135.707 -4.77631 137.865C-3.48023 140.846 7.72247 150.624 10.4273 154.637C9.42428 155.147 8.62409 155.46 7.53087 155.971C5.82905 156.899 6.23478 156.899 4.22867 155.658C-0.166755 153.083 -14.2659 144.743 -17.0722 143.618C-20.7689 145.265 -30.5741 150.415 -33.9664 150.206C-35.5668 150.102 -38.1703 149.591 -37.6631 147.527C-36.367 142.481 -27.5649 139.709 -21.8621 137.134C-19.563 136.102 -20.1603 136.311 -19.6644 133.736C-19.0671 130.859 -15.2577 110.793 -14.3674 109.761C-14.0631 109.447 -10.8736 108.009 -10.265 107.8C-9.96066 109.656 -9.75779 111.605 -9.66763 113.565L-8.66457 125.094C-8.66457 126.846 -8.36027 129.108 -8.06725 130.755C-5.4638 129.514 -2.87163 128.284 -0.166752 127.055C13.2337 120.466 10.7316 124.897 13.9324 117.485C15.7357 113.368 15.6342 110.897 19.6352 111.512C18.9252 119.759 21.1229 124.909 27.423 129.224ZM24.5265 119.04C23.0276 119.55 23.6249 121.916 25.3267 121.51L27.6258 120.687C29.0234 120.269 28.5275 117.81 26.8256 118.216L24.5265 119.04ZM285.006 174.402C286.302 175.538 287.7 173.474 286.505 172.453L285.502 171.629C284.104 170.493 282.707 172.557 283.902 173.59L285.006 174.402ZM278.109 168.741C279.405 169.774 280.904 167.813 279.709 166.781L277.714 165.134C276.418 164.102 274.919 166.166 276.215 167.187L278.109 168.741ZM270.31 162.571C271.504 163.603 273.105 161.643 271.808 160.518L269.814 158.975C268.518 158.047 266.917 160.007 268.315 161.04L270.31 162.571ZM262.308 156.597C263.705 157.629 265.012 155.368 263.705 154.544L261.609 153.106C260.211 152.074 258.904 154.347 260.211 155.159L262.308 156.597ZM254.103 150.937C255.5 151.865 256.808 149.707 255.5 148.779L253.404 147.446C252.007 146.518 250.609 148.582 252.007 149.51L254.103 150.937ZM245.808 145.485C247.104 146.309 248.501 144.256 247.003 143.328L244.906 141.994C243.61 141.171 242.213 143.224 243.61 144.151L245.808 145.485ZM237.209 140.335C238.809 141.159 239.812 138.897 238.505 138.074L236.307 136.844C234.808 136.021 233.704 138.282 235.112 139.106L237.209 140.335ZM228.609 135.499C230.108 136.218 231.111 133.956 229.714 133.237L227.516 131.996C226.017 131.277 224.913 133.538 226.412 134.258L228.609 135.499ZM219.706 130.975C221.205 131.694 222.309 129.432 220.799 128.609L218.601 127.577C217.204 126.857 215.998 129.015 217.497 129.838L219.706 130.975ZM210.814 126.753C212.414 127.368 213.214 125.002 211.715 124.387L209.416 123.355C207.917 122.74 207.015 125.106 208.514 125.721L210.814 126.753ZM192.409 119.341C194.111 119.852 194.607 117.381 193.209 116.975L190.809 116.152C189.107 115.641 188.611 118.112 190.009 118.518L192.409 119.341ZM183.01 116.256C184.509 116.766 185.207 114.296 183.708 113.785L181.308 113.066C179.707 112.649 179.009 115.119 180.609 115.537L183.01 116.256ZM173.509 113.588C174.906 113.994 175.808 111.64 174.106 111.118L171.706 110.503C169.902 110.097 169.609 112.66 171.108 112.973L173.509 113.588ZM163.918 111.222C165.518 111.535 165.913 109.065 164.414 108.751L161.912 108.241C160.311 107.928 159.815 110.399 161.404 110.712L163.918 111.222ZM154.214 109.366C155.713 109.679 156.31 107.209 154.608 106.791C153.808 106.687 152.907 106.478 152.106 106.385C150.608 106.072 150.01 108.543 151.712 108.96C152.512 109.053 153.414 109.157 154.214 109.366ZM144.42 107.824C146.122 108.032 146.325 105.457 144.724 105.353L142.324 105.04C140.622 104.831 140.419 107.406 142.02 107.51L144.42 107.824ZM134.615 106.791C136.215 106.896 136.52 104.425 134.818 104.216L132.316 104.007C130.817 103.799 130.422 106.374 132.214 106.582L134.615 106.791ZM124.821 106.072C126.523 106.177 126.421 103.602 124.922 103.602L122.42 103.497C120.719 103.393 120.719 105.968 122.319 105.968L124.821 106.072ZM114.914 105.863C116.515 105.863 116.616 103.288 114.914 103.288C114.114 103.288 113.213 103.288 112.412 103.288C110.913 103.288 110.711 105.863 112.412 105.863C113.325 105.863 114.114 105.863 114.914 105.863ZM105.019 106.072C106.822 105.863 106.518 103.393 104.918 103.497L102.517 103.602C100.815 103.706 101.018 106.281 102.619 106.177L105.019 106.072ZM95.2252 106.582C96.8256 106.478 96.6227 103.903 95.0223 104.007L92.5203 104.216C90.9199 104.321 91.1228 106.896 92.7232 106.791L95.2252 106.582ZM85.42 107.51C86.919 107.406 86.8175 104.831 85.1157 105.04C84.3155 105.144 83.4139 105.249 82.6137 105.353C81.1147 105.457 81.2162 108.032 82.918 107.824C83.7182 107.719 84.5184 107.615 85.42 107.51ZM75.6261 108.844C77.3279 108.531 76.7306 106.072 75.2317 106.374L72.7184 106.687C71.118 107.104 71.6139 109.575 73.1128 109.262L75.6261 108.844ZM65.8209 110.596C67.4213 110.283 67.0269 107.719 65.4265 108.021L62.9245 108.531C61.4255 108.844 61.82 111.315 63.4204 111.002L65.8209 110.596ZM56.2186 112.556C57.7176 112.347 57.3231 109.784 55.6213 110.085L53.2207 110.7C51.5189 111.118 52.3191 113.577 53.8181 113.171L56.2186 112.556ZM46.6276 115.027C48.228 114.516 47.5292 112.046 45.9288 112.556L43.5283 113.171C41.9279 113.577 42.6266 116.047 44.227 115.641L46.6276 115.027ZM37.0253 117.706C38.6257 117.3 38.0283 114.725 36.3265 115.235L34.0274 115.954C32.5284 116.36 33.0243 118.831 34.7261 118.425L37.0253 117.706ZM484.784 105.457C483.285 105.968 483.882 108.334 485.584 107.928L487.883 107.104C489.28 106.687 488.886 104.228 487.083 104.738L484.784 105.457ZM745.263 160.924C746.559 161.956 748.058 159.891 746.762 158.963L745.759 158.035C744.362 156.899 742.964 159.068 744.159 159.996L745.263 160.924ZM738.366 155.263C739.673 156.296 741.161 154.231 739.966 153.21L737.96 151.668C736.664 150.635 735.154 152.596 736.461 153.628L738.366 155.263ZM730.567 148.988C731.761 150.021 733.362 148.06 732.066 147.028L730.071 145.485C728.775 144.453 727.174 146.413 728.572 147.538L730.567 148.988ZM722.565 143.119C723.962 144.047 725.27 141.89 723.962 140.962L721.967 139.523C720.468 138.596 719.161 140.765 720.57 141.681L722.565 143.119ZM714.371 137.354C715.769 138.282 717.065 136.125 715.769 135.197L713.672 133.863C712.275 132.935 710.968 135.104 712.275 136.021L714.371 137.354ZM706.065 131.903C707.372 132.831 708.77 130.766 707.372 129.746L705.175 128.412C703.98 127.588 702.481 129.641 703.98 130.673L706.065 131.903ZM697.567 126.753C699.066 127.577 700.069 125.315 698.773 124.596L696.575 123.262C695.076 122.543 693.972 124.804 695.381 125.524L697.567 126.753ZM688.878 121.916C690.377 122.635 691.481 120.478 689.971 119.654L687.773 118.518C686.274 117.694 685.271 120.06 686.669 120.78L688.878 121.916ZM679.974 117.393C681.473 118.112 682.578 115.85 681.079 115.131L678.881 113.994C677.483 113.275 676.289 115.537 677.776 116.256L679.974 117.393ZM671.071 113.171C672.671 113.785 673.471 111.419 671.972 110.804L669.775 109.772C668.174 109.157 667.273 111.628 668.771 112.138L671.071 113.171ZM661.874 109.366C663.373 109.981 664.365 107.615 662.776 106.896L660.477 106.072C658.978 105.457 658.076 107.824 659.575 108.438L661.874 109.366ZM652.677 105.863C654.379 106.374 654.875 103.81 653.478 103.393L651.077 102.569C649.375 102.059 648.879 104.529 650.277 105.04L652.677 105.863ZM643.278 102.674C644.878 103.184 645.476 100.725 643.977 100.307L641.576 99.5883C639.976 99.0779 639.277 101.549 640.877 101.954L643.278 102.674ZM633.777 100.006C635.175 100.412 636.076 98.0456 634.374 97.5353L631.974 96.9205C630.171 96.5146 629.866 99.0779 631.377 99.3911L633.777 100.006ZM624.175 97.7325C625.775 98.0456 626.17 95.4707 624.671 95.1575L622.169 94.6471C620.568 94.334 620.163 96.8045 621.774 97.1177L624.175 97.7325ZM614.482 95.7838C615.981 96.097 616.59 93.6264 614.877 93.3133C614.077 93.1045 613.277 93.0001 612.375 92.8029C610.977 92.5941 610.279 95.0647 611.98 95.3779C612.882 95.4707 613.682 95.6795 614.482 95.7838ZM604.677 94.2412C606.379 94.45 606.582 91.9794 604.982 91.7706L602.581 91.4574C600.879 91.2486 600.676 93.8236 602.277 93.928L604.677 94.2412ZM594.883 93.2089C596.484 93.4177 596.777 90.8427 595.086 90.6339L592.584 90.4251C591.085 90.3207 590.679 92.7913 592.483 93.0001L594.883 93.2089ZM585.078 92.5941C586.78 92.5941 586.679 90.0192 585.18 90.0192L582.678 89.9148C580.976 89.9148 580.976 92.3853 582.576 92.4897L585.078 92.5941ZM575.183 92.281C576.783 92.281 576.885 89.8104 575.183 89.706C574.383 89.706 573.481 89.706 572.681 89.706C571.182 89.706 570.979 92.281 572.681 92.281C573.582 92.281 574.383 92.281 575.183 92.281ZM565.287 92.4897C567.091 92.3853 566.786 89.8104 565.186 89.9148L562.785 90.0192C561.084 90.1236 561.287 92.6985 562.887 92.5941L565.287 92.4897ZM555.482 93.0001C557.083 92.8957 556.981 90.3207 555.279 90.5295L552.777 90.7383C551.177 90.8427 551.38 93.3133 552.98 93.2089L555.482 93.0001ZM545.688 94.0324C547.187 93.8236 547.086 91.2486 545.384 91.4574C544.584 91.5618 543.682 91.6662 542.882 91.7706C541.383 91.875 541.485 94.45 543.186 94.2412C543.987 94.1368 544.787 94.0324 545.688 94.0324ZM535.883 95.2619C537.585 94.9487 536.976 92.4897 535.489 92.7913L532.987 93.1973C531.386 93.5104 531.882 95.981 533.381 95.6678L535.883 95.2619ZM526.078 97.0133C527.678 96.7002 527.284 94.2412 525.684 94.5428L523.193 94.9487C521.694 95.2619 522.088 97.8253 523.689 97.5237L526.078 97.0133ZM516.487 99.0779C517.986 98.7648 517.592 96.2014 515.89 96.6074L513.489 97.1177C511.787 97.6281 512.587 100.006 514.086 99.5883L516.487 99.0779ZM506.885 101.444C508.485 100.934 507.786 98.5676 506.287 98.9736L503.785 99.5883C502.185 100.099 502.884 102.465 504.484 102.059L506.885 101.444ZM497.384 104.112C498.883 103.706 498.285 101.235 496.685 101.641L494.284 102.36C492.786 102.766 493.281 105.341 494.983 104.831L497.384 104.112Z" fill="#CCCCCC"/>
</g>
<defs>
<clipPath id="clip0_380_1749">
<rect width="785" height="191" fill="white"/>
</clipPath>
</defs>
</svg>
