<svg width="42" height="42" viewBox="0 0 42 42" fill="none" xmlns="http://www.w3.org/2000/svg">
<g clip-path="url(#clip0_380_1838)">
<path d="M20.8078 0.706543C12.3938 0.706543 5.57275 7.52751 5.57275 15.9416C5.57275 18.7555 6.12353 21.6618 7.70408 23.7565L20.8078 41.1229L33.9116 23.7565C35.3472 21.8539 36.0429 18.4904 36.0429 15.9416C36.0429 7.52751 29.2219 0.706543 20.8078 0.706543ZM20.8078 9.53034C24.3482 9.53034 27.2191 12.4013 27.2191 15.9416C27.2191 19.482 24.3482 22.3529 20.8078 22.3529C17.2675 22.3529 14.3966 19.482 14.3966 15.9416C14.3966 12.4013 17.2675 9.53034 20.8078 9.53034Z" fill="#DD5471"/>
</g>
<defs>
<clipPath id="clip0_380_1838">
<rect width="40.4164" height="40.4164" fill="white" transform="translate(0.599609 0.706543)"/>
</clipPath>
</defs>
</svg>
