<svg width="15" height="24" viewBox="0 0 15 24" fill="none" xmlns="http://www.w3.org/2000/svg">
<path d="M6.883 12.0663C6.883 11.1434 6.69676 10.2507 6.33929 9.48422L6.25456 9.30287H0.949915L0.866947 9.48422C0.510361 10.2496 0.323242 11.1434 0.323242 12.0663C0.323242 14.4207 1.54834 16.3713 3.13797 16.6941V22.1919C2.22091 22.2373 1.53775 22.4078 1.53775 22.6097C1.53775 22.8493 2.46893 23.0415 3.61812 23.0415C4.7682 23.0415 5.70115 22.8493 5.70115 22.6097C5.70115 22.4078 5.01799 22.2373 4.10093 22.1919V16.6898C5.67467 16.3465 6.883 14.4034 6.883 12.0663ZM3.60224 16.0237C2.11764 16.0237 0.90843 14.2491 0.90843 12.0642C0.90843 11.3366 1.04171 10.6339 1.29679 10.0175H5.90857C6.16277 10.6339 6.29781 11.3377 6.29781 12.0642C6.29869 14.2502 5.08771 16.0237 3.60224 16.0237ZM12.4992 3.24371H10.1664V0.769531H12.4992V3.24371ZM12.4992 6.30945V4.00475H10.1664V6.31053C9.18139 6.85351 8.49293 8.0647 8.49293 9.47451V11.7339V18.9373V23.1699H14.1718V18.9373V11.7339V9.47451C14.1727 8.0647 13.486 6.85351 12.4992 6.30945ZM13.6705 19.6778H9.04458V12.89H13.6705V19.6778ZM6.05332 12.1408C6.05332 12.1408 5.93063 15.7301 3.64196 15.7301C1.35328 15.7301 1.04436 12.1408 1.04436 12.1408H6.05332Z" fill="#125777"/>
</svg>
