<svg width="66" height="57" viewBox="0 0 66 57" fill="none" xmlns="http://www.w3.org/2000/svg">
<path d="M65.5 39C65.5 48.9411 57.4411 57 47.5 57L20.5 57C17.7386 57 15.5 54.7614 15.5 52L15.5 18C15.5 12.4772 19.9772 8 25.5 8L60.5 8C63.2614 8 65.5 10.2386 65.5 13L65.5 39Z" fill="#EEF5FB"/>
<path d="M28.4439 18.2191C28.4439 18.2191 26.4039 16.4191 22.8239 17.6791C19.5239 18.8191 19.6839 23.3391 24.6839 24.5391" stroke="#105877" stroke-width="1.15463" stroke-miterlimit="10" stroke-linecap="round" stroke-linejoin="round"/>
<path d="M20.6038 30.779C20.6038 30.779 22.6438 32.579 26.2238 31.319C29.5438 30.159 29.3838 25.639 24.3638 24.439" stroke="#105877" stroke-width="1.15463" stroke-miterlimit="10" stroke-linecap="round" stroke-linejoin="round"/>
<path d="M24.8838 17.2393V14.2993" stroke="#105877" stroke-width="1.15463" stroke-miterlimit="10" stroke-linecap="round" stroke-linejoin="round"/>
<path d="M24.8838 34.6988V31.7588" stroke="#105877" stroke-width="1.15463" stroke-miterlimit="10" stroke-linecap="round" stroke-linejoin="round"/>
<path d="M24.5225 42.9586C34.7177 42.9586 42.9825 34.6937 42.9825 24.4986C42.9825 14.3034 34.7177 6.03857 24.5225 6.03857C14.3273 6.03857 6.0625 14.3034 6.0625 24.4986C6.0625 34.6937 14.3273 42.9586 24.5225 42.9586Z" stroke="#105877" stroke-width="1.15463" stroke-miterlimit="10" stroke-linecap="round" stroke-linejoin="round"/>
</svg>
