<svg width="61" height="60" viewBox="0 0 61 60" fill="none" xmlns="http://www.w3.org/2000/svg">
<mask id="path-1-inside-1_380_898" fill="white">
<path d="M35.7267 29.5557C35.4257 29.5557 35.1463 29.4729 34.898 29.3398V29.3433C34.898 29.8169 34.714 30.2616 34.38 30.5947C34.046 30.9286 33.6017 31.1127 33.1287 31.1127C32.8233 31.1127 32.5402 31.0279 32.2893 30.8912C32.264 31.3244 32.0908 31.7294 31.7819 32.0386C31.4479 32.3726 31.0036 32.5566 30.5303 32.5566C29.5899 32.5566 28.8263 31.8175 28.7712 30.8909C28.4803 31.0482 28.1513 31.1307 27.812 31.1089C26.887 31.0482 26.1625 30.249 26.1625 29.2888V21.3305L25.2563 22.9005C24.9112 23.501 24.2651 23.8738 23.5694 23.8738C23.2305 23.8738 22.8956 23.7849 22.5991 23.6149C22.2298 23.4008 21.9656 23.0572 21.8558 22.646C21.7453 22.2346 21.8025 21.8043 22.016 21.4356C22.0163 21.4356 24.981 16.3016 25.1618 15.9862C25.1833 15.9388 25.2446 15.8013 25.2967 15.6841C25.3465 15.5722 25.3892 15.4573 25.4301 15.3419C26.3242 12.8178 28.538 11.2499 31.2079 11.2499C34.675 11.2499 37.4957 14.3085 37.4957 18.0681L37.496 27.786C37.496 28.259 37.3122 28.7034 36.9785 29.0377C36.6446 29.3716 36.2002 29.5557 35.7267 29.5557L35.7267 29.5557ZM31.2079 12.19C28.9138 12.19 27.0852 13.4859 26.3163 15.6563C26.2671 15.7941 26.2159 15.9319 26.1561 16.0662C25.9826 16.4553 25.9826 16.4553 25.9338 16.5112L25.9273 16.5056C25.6852 16.9624 24.966 18.2078 22.83 21.9061C22.7423 22.0578 22.719 22.2339 22.7638 22.4024C22.8091 22.5708 22.9178 22.7128 23.0683 22.7996C23.5354 23.0679 24.175 22.8948 24.4412 22.4309L26.2256 19.3416C26.3322 19.1576 26.5478 19.0671 26.7545 19.1231C26.9601 19.1782 27.1029 19.3646 27.1029 19.5772V29.2891C27.1029 29.7474 27.4487 30.1429 27.8736 30.1708C28.1187 30.1838 28.3472 30.1016 28.5189 29.9302C28.675 29.7741 28.761 29.5662 28.761 29.3439V22.9922C28.761 22.7324 28.9715 22.5218 29.2313 22.5218C29.491 22.5218 29.7016 22.7321 29.7016 22.9922L29.7013 30.7876C29.7013 31.2447 30.0732 31.6166 30.5303 31.6166C30.7523 31.6166 30.9608 31.5306 31.1172 31.3746C31.2733 31.2182 31.3593 31.0097 31.3593 30.7876V22.9922C31.3593 22.7324 31.5696 22.5218 31.8296 22.5218C32.0894 22.5218 32.2999 22.7321 32.2999 22.9922L32.2996 29.2708V29.3439C32.2996 29.8006 32.6716 30.1726 33.1289 30.1726C33.3507 30.1726 33.5586 30.0863 33.7159 29.9296C33.872 29.7738 33.958 29.5659 33.958 29.3435V22.9918C33.958 22.7321 34.1682 22.5215 34.4283 22.5215C34.688 22.5215 34.8986 22.7318 34.8986 22.9918L34.898 27.7863C34.898 28.2436 35.2699 28.6156 35.7267 28.6156C35.949 28.6156 36.157 28.5293 36.313 28.3735C36.4697 28.2168 36.5554 28.0083 36.5554 27.7863L36.5557 18.0683C36.5557 14.8274 34.1567 12.1901 31.2079 12.1901L31.2079 12.19Z"/>
</mask>
<path d="M35.7267 29.5557C35.4257 29.5557 35.1463 29.4729 34.898 29.3398V29.3433C34.898 29.8169 34.714 30.2616 34.38 30.5947C34.046 30.9286 33.6017 31.1127 33.1287 31.1127C32.8233 31.1127 32.5402 31.0279 32.2893 30.8912C32.264 31.3244 32.0908 31.7294 31.7819 32.0386C31.4479 32.3726 31.0036 32.5566 30.5303 32.5566C29.5899 32.5566 28.8263 31.8175 28.7712 30.8909C28.4803 31.0482 28.1513 31.1307 27.812 31.1089C26.887 31.0482 26.1625 30.249 26.1625 29.2888V21.3305L25.2563 22.9005C24.9112 23.501 24.2651 23.8738 23.5694 23.8738C23.2305 23.8738 22.8956 23.7849 22.5991 23.6149C22.2298 23.4008 21.9656 23.0572 21.8558 22.646C21.7453 22.2346 21.8025 21.8043 22.016 21.4356C22.0163 21.4356 24.981 16.3016 25.1618 15.9862C25.1833 15.9388 25.2446 15.8013 25.2967 15.6841C25.3465 15.5722 25.3892 15.4573 25.4301 15.3419C26.3242 12.8178 28.538 11.2499 31.2079 11.2499C34.675 11.2499 37.4957 14.3085 37.4957 18.0681L37.496 27.786C37.496 28.259 37.3122 28.7034 36.9785 29.0377C36.6446 29.3716 36.2002 29.5557 35.7267 29.5557L35.7267 29.5557ZM31.2079 12.19C28.9138 12.19 27.0852 13.4859 26.3163 15.6563C26.2671 15.7941 26.2159 15.9319 26.1561 16.0662C25.9826 16.4553 25.9826 16.4553 25.9338 16.5112L25.9273 16.5056C25.6852 16.9624 24.966 18.2078 22.83 21.9061C22.7423 22.0578 22.719 22.2339 22.7638 22.4024C22.8091 22.5708 22.9178 22.7128 23.0683 22.7996C23.5354 23.0679 24.175 22.8948 24.4412 22.4309L26.2256 19.3416C26.3322 19.1576 26.5478 19.0671 26.7545 19.1231C26.9601 19.1782 27.1029 19.3646 27.1029 19.5772V29.2891C27.1029 29.7474 27.4487 30.1429 27.8736 30.1708C28.1187 30.1838 28.3472 30.1016 28.5189 29.9302C28.675 29.7741 28.761 29.5662 28.761 29.3439V22.9922C28.761 22.7324 28.9715 22.5218 29.2313 22.5218C29.491 22.5218 29.7016 22.7321 29.7016 22.9922L29.7013 30.7876C29.7013 31.2447 30.0732 31.6166 30.5303 31.6166C30.7523 31.6166 30.9608 31.5306 31.1172 31.3746C31.2733 31.2182 31.3593 31.0097 31.3593 30.7876V22.9922C31.3593 22.7324 31.5696 22.5218 31.8296 22.5218C32.0894 22.5218 32.2999 22.7321 32.2999 22.9922L32.2996 29.2708V29.3439C32.2996 29.8006 32.6716 30.1726 33.1289 30.1726C33.3507 30.1726 33.5586 30.0863 33.7159 29.9296C33.872 29.7738 33.958 29.5659 33.958 29.3435V22.9918C33.958 22.7321 34.1682 22.5215 34.4283 22.5215C34.688 22.5215 34.8986 22.7318 34.8986 22.9918L34.898 27.7863C34.898 28.2436 35.2699 28.6156 35.7267 28.6156C35.949 28.6156 36.157 28.5293 36.313 28.3735C36.4697 28.2168 36.5554 28.0083 36.5554 27.7863L36.5557 18.0683C36.5557 14.8274 34.1567 12.1901 31.2079 12.1901L31.2079 12.19Z" fill="#105877"/>
<path d="M35.7267 29.5557V28.2223H40.4374L36.4255 30.6912L35.7267 29.5557ZM34.898 29.3398H33.5647V27.112L35.5281 28.1647L34.898 29.3398ZM34.38 30.5947L33.4372 29.6519L33.4384 29.6506L34.38 30.5947ZM32.2893 30.8912L30.9583 30.8134L31.0809 28.715L32.927 29.7203L32.2893 30.8912ZM31.7819 32.0386L32.7252 32.9809L32.7247 32.9814L31.7819 32.0386ZM28.7712 30.8909L28.1373 29.718L29.9781 28.723L30.1022 30.8119L28.7712 30.8909ZM27.812 31.1089L27.7265 32.4395L27.7248 32.4393L27.812 31.1089ZM26.1625 21.3305L25.0078 20.664L27.4959 16.3535V21.3305H26.1625ZM25.2563 22.9005L24.1003 22.236L24.1016 22.2339L25.2563 22.9005ZM22.5991 23.6149L21.9362 24.7718L21.9304 24.7684L22.5991 23.6149ZM21.8558 22.646L23.1435 22.3003L23.1439 22.3018L21.8558 22.646ZM22.016 21.4356L20.8621 20.7675L21.2473 20.1023H22.016V21.4356ZM25.1618 15.9862L26.3762 16.5368L26.35 16.5946L26.3185 16.6496L25.1618 15.9862ZM25.2967 15.6841L24.0784 15.1423L24.0784 15.1423L25.2967 15.6841ZM25.4301 15.3419L26.6869 15.7871L26.6868 15.7874L25.4301 15.3419ZM37.4957 18.0681L36.1623 18.0681V18.0681H37.4957ZM37.496 27.786L38.8293 27.786V27.786H37.496ZM36.9785 29.0377L37.9222 29.9796L37.9213 29.9805L36.9785 29.0377ZM35.7267 29.5557V30.889H31.0159L35.0279 28.4202L35.7267 29.5557ZM31.2079 12.19V10.8567H32.9756L32.4899 12.5563L31.2079 12.19ZM26.3163 15.6563L27.5731 16.1015L27.5721 16.1044L26.3163 15.6563ZM26.1561 16.0662L27.3742 16.6085L27.3739 16.6092L26.1561 16.0662ZM25.9338 16.5112L26.9378 17.3885L26.0656 18.3868L25.0623 17.5203L25.9338 16.5112ZM25.9273 16.5056L24.7492 15.8813L25.5326 14.403L26.7988 15.4965L25.9273 16.5056ZM22.83 21.9061L23.9846 22.573L23.9841 22.5739L22.83 21.9061ZM22.7638 22.4024L21.4763 22.749L21.4752 22.7448L22.7638 22.4024ZM23.0683 22.7996L22.4042 23.9558L22.4017 23.9544L23.0683 22.7996ZM24.4412 22.4309L23.2848 21.7672L23.2867 21.764L24.4412 22.4309ZM26.2256 19.3416L25.071 18.6747L25.0718 18.6733L26.2256 19.3416ZM26.7545 19.1231L26.4095 20.411L26.4062 20.4101L26.7545 19.1231ZM27.8736 30.1708L27.8032 31.5023L27.7946 31.5018L27.7861 31.5013L27.8736 30.1708ZM28.5189 29.9302L29.4617 30.873L29.4609 30.8739L28.5189 29.9302ZM29.7016 22.9922L31.0349 22.9922L31.0349 22.9922L29.7016 22.9922ZM29.7013 30.7876L28.368 30.7876L28.368 30.7876L29.7013 30.7876ZM31.1172 31.3746L32.0609 32.3165L32.0591 32.3183L31.1172 31.3746ZM32.2999 22.9922L33.6333 22.9922L33.6333 22.9922L32.2999 22.9922ZM32.2996 29.2708L30.9663 29.2708L30.9663 29.2708L32.2996 29.2708ZM33.7159 29.9296L34.6578 30.8733L34.6569 30.8742L33.7159 29.9296ZM34.8986 22.9918L36.2319 22.9918L36.2319 22.992L34.8986 22.9918ZM34.898 27.7863L33.5647 27.7863L33.5647 27.7861L34.898 27.7863ZM36.313 28.3735L37.2558 29.3163L37.255 29.3172L36.313 28.3735ZM36.5554 27.7863L35.2221 27.7863L35.2221 27.7862L36.5554 27.7863ZM36.5557 18.0683L37.889 18.0683L37.889 18.0684L36.5557 18.0683ZM31.2079 12.1901V13.5235H29.4402L29.9259 11.8238L31.2079 12.1901ZM35.7267 30.889C35.1756 30.889 34.6814 30.7365 34.2679 30.5149L35.5281 28.1647C35.6112 28.2093 35.6759 28.2223 35.7267 28.2223V30.889ZM36.2314 29.3398V29.3433H33.5647V29.3398H36.2314ZM36.2314 29.3433C36.2314 30.1694 35.9075 30.9543 35.3216 31.5387L33.4384 29.6506C33.5204 29.5689 33.5647 29.4644 33.5647 29.3433H36.2314ZM35.3228 31.5375C34.7386 32.1217 33.955 32.446 33.1287 32.446V29.7794C33.2483 29.7794 33.3535 29.7356 33.4372 29.6519L35.3228 31.5375ZM33.1287 32.446C32.5702 32.446 32.0698 32.2899 31.6516 32.0622L32.927 29.7203C33.0107 29.7659 33.0763 29.7794 33.1287 29.7794V32.446ZM33.6204 30.9691C33.5769 31.712 33.2761 32.4295 32.7252 32.9809L30.8386 31.0963C30.9056 31.0293 30.951 30.9369 30.9583 30.8134L33.6204 30.9691ZM32.7247 32.9814C32.1404 33.5657 31.3568 33.89 30.5303 33.89V31.2233C30.6504 31.2233 30.7555 31.1794 30.8391 31.0958L32.7247 32.9814ZM30.5303 33.89C28.8702 33.89 27.5363 32.5868 27.4402 30.97L30.1022 30.8119C30.1162 31.0481 30.3096 31.2233 30.5303 31.2233V33.89ZM29.4052 32.0639C28.9163 32.3281 28.3399 32.4789 27.7265 32.4395L27.8975 29.7783C27.9627 29.7825 28.0442 29.7683 28.1373 29.718L29.4052 32.0639ZM27.7248 32.4393C26.0593 32.3301 24.8292 30.9113 24.8292 29.2888H27.4959C27.4959 29.5866 27.7146 29.7663 27.8993 29.7784L27.7248 32.4393ZM24.8292 29.2888V21.3305H27.4959V29.2888H24.8292ZM27.3173 21.9971L26.4111 23.567L24.1016 22.2339L25.0078 20.664L27.3173 21.9971ZM26.4123 23.5649C25.8281 24.5814 24.7398 25.2071 23.5694 25.2071V22.5405C23.7903 22.5405 23.9943 22.4206 24.1004 22.236L26.4123 23.5649ZM23.5694 25.2071C22.9974 25.2071 22.4341 25.0571 21.9362 24.7718L23.262 22.4581C23.3571 22.5126 23.4635 22.5405 23.5694 22.5405V25.2071ZM21.9304 24.7684C21.2579 24.3786 20.7693 23.7451 20.5676 22.9902L23.1439 22.3018C23.1619 22.3693 23.2017 22.4231 23.2678 22.4614L21.9304 24.7684ZM20.568 22.9917C20.3655 22.2372 20.4714 21.4423 20.8621 20.7675L23.1698 22.1037C23.1335 22.1664 23.1252 22.232 23.1435 22.3003L20.568 22.9917ZM22.016 20.1023C21.3619 20.2737 20.8724 20.7501 20.8687 20.7562C20.8675 20.7582 20.8657 20.7613 20.8651 20.7623C20.8648 20.7628 20.8643 20.7638 20.8641 20.7641C20.864 20.7643 20.8637 20.7647 20.8637 20.7647C20.8636 20.7649 20.8638 20.7647 20.8644 20.7635C20.8656 20.7615 20.8675 20.7581 20.8703 20.7533C20.8758 20.7438 20.8841 20.7295 20.8949 20.7107C20.9167 20.6732 20.9486 20.6179 20.9893 20.5475C21.0707 20.4065 21.1872 20.2048 21.3276 19.9617C21.6084 19.4755 21.9846 18.8239 22.3665 18.1625C23.1313 16.8379 23.9161 15.4784 24.0052 15.3229L26.3185 16.6496C26.2267 16.8095 25.4387 18.1746 24.6759 19.4959C24.294 20.1574 23.9177 20.809 23.6368 21.2953C23.4964 21.5384 23.3799 21.7402 23.2984 21.8813C23.2576 21.9518 23.2256 22.0072 23.2038 22.045C23.1929 22.0639 23.1845 22.0785 23.1787 22.0884C23.1759 22.0933 23.1736 22.0973 23.1719 22.1002C23.1711 22.1015 23.1702 22.1031 23.1694 22.1046C23.169 22.1051 23.1681 22.1066 23.1671 22.1084C23.1664 22.1095 23.1646 22.1127 23.1633 22.1149C23.1596 22.1211 22.67 22.5975 22.016 22.7689V20.1023ZM23.9475 15.4356C23.9665 15.3938 24.0252 15.2619 24.0784 15.1423L26.515 16.2259C26.464 16.3407 26.4002 16.4839 26.3762 16.5368L23.9475 15.4356ZM24.0784 15.1423C24.1069 15.0782 24.136 15.002 24.1734 14.8963L26.6868 15.7874C26.6424 15.9126 26.5861 16.0661 26.515 16.2259L24.0784 15.1423ZM24.1733 14.8967C25.2552 11.8424 27.9709 9.91652 31.2079 9.91652V12.5832C29.105 12.5832 27.3932 13.7931 26.6869 15.7871L24.1733 14.8967ZM31.2079 9.91652C35.511 9.91652 38.829 13.6758 38.829 18.0681H36.1623C36.1623 14.9411 33.839 12.5832 31.2079 12.5832V9.91652ZM38.829 18.0681L38.8293 27.786L36.1626 27.7861L36.1623 18.0681L38.829 18.0681ZM38.8293 27.786C38.8293 28.6118 38.5057 29.3951 37.9222 29.9796L36.0349 28.0957C36.1187 28.0117 36.1626 27.9062 36.1626 27.786H38.8293ZM37.9213 29.9805C37.337 30.5649 36.5533 30.889 35.7267 30.889V28.2224C35.8471 28.2224 35.9522 28.1784 36.0357 28.0949L37.9213 29.9805ZM35.0279 28.4202L35.0279 28.4201L36.4255 30.6912L36.4255 30.6912L35.0279 28.4202ZM31.2079 13.5234C29.4814 13.5234 28.1544 14.4607 27.5731 16.1015L25.0595 15.2111C26.016 12.511 28.3461 10.8567 31.2079 10.8567V13.5234ZM27.5721 16.1044C27.5202 16.2499 27.4552 16.4264 27.3742 16.6085L24.938 15.524C24.9765 15.4374 25.0141 15.3383 25.0605 15.2082L27.5721 16.1044ZM27.3739 16.6092C27.2955 16.7851 27.2356 16.9202 27.1909 17.0096C27.1639 17.0638 27.1225 17.1422 27.0636 17.228C27.0039 17.3149 26.9449 17.3804 26.9378 17.3885L24.9297 15.6339C24.947 15.6141 24.9064 15.6586 24.8659 15.7176C24.8459 15.7466 24.8308 15.7717 24.8205 15.7899C24.8109 15.8068 24.8056 15.8175 24.8055 15.8177C24.8054 15.8179 24.8079 15.8128 24.8143 15.7991C24.8205 15.7857 24.8289 15.7675 24.8403 15.7422C24.8636 15.6909 24.8943 15.622 24.9383 15.5233L27.3739 16.6092ZM25.0623 17.5203L25.0558 17.5147L26.7988 15.4965L26.8052 15.5021L25.0623 17.5203ZM27.1054 17.13C26.8483 17.6151 26.1087 18.8953 23.9846 22.573L21.6754 21.2393C23.8234 17.5203 24.5221 16.3097 24.7492 15.8813L27.1054 17.13ZM23.9841 22.5739C24.0732 22.4199 24.0983 22.2327 24.0524 22.0599L21.4752 22.7448C21.3397 22.2351 21.4113 21.6957 21.676 21.2383L23.9841 22.5739ZM24.0513 22.0557C24.0055 21.8856 23.8924 21.7358 23.7349 21.6449L22.4017 23.9544C21.9433 23.6897 21.6128 23.256 21.4763 22.749L24.0513 22.0557ZM23.7324 21.6435C23.6273 21.5831 23.5351 21.5884 23.4835 21.6023C23.4322 21.6161 23.3473 21.6583 23.2848 21.7672L25.5977 23.0946C24.9633 24.1999 23.5074 24.5895 22.4042 23.9558L23.7324 21.6435ZM23.2867 21.764L25.071 18.6747L27.3802 20.0085L25.5958 23.0978L23.2867 21.764ZM25.0718 18.6733C25.4783 17.9716 26.3075 17.6208 27.1029 17.8361L26.4062 20.4101C26.7881 20.5135 27.1862 20.3435 27.3794 20.0099L25.0718 18.6733ZM27.0996 17.8352C27.8887 18.0466 28.4363 18.7617 28.4363 19.5772H25.7696C25.7696 19.9674 26.0315 20.3097 26.4095 20.411L27.0996 17.8352ZM28.4363 19.5772V29.2891H25.7696V19.5772H28.4363ZM28.4363 29.2891C28.4363 29.183 28.3973 29.0876 28.3328 29.0138C28.2684 28.9402 28.1442 28.8524 27.9612 28.8404L27.7861 31.5013C26.5787 31.4218 25.7696 30.365 25.7696 29.2891H28.4363ZM27.9441 28.8393C27.8953 28.8368 27.8317 28.8431 27.7617 28.8689C27.6908 28.8951 27.6271 28.9365 27.5769 28.9866L29.4609 30.8739C29.0056 31.3284 28.4018 31.534 27.8032 31.5023L27.9441 28.8393ZM27.5761 28.9874C27.4808 29.0827 27.4276 29.2145 27.4276 29.3439H30.0943C30.0943 29.9179 29.8692 30.4655 29.4617 30.873L27.5761 28.9874ZM27.4276 29.3439V22.9922H30.0943V29.3439H27.4276ZM27.4276 22.9922C27.4276 21.996 28.2351 21.1885 29.2313 21.1885V23.8552C29.7079 23.8552 30.0943 23.4688 30.0943 22.9922H27.4276ZM29.2313 21.1885C30.2269 21.1885 31.0349 21.9952 31.0349 22.9922H28.3683C28.3683 23.469 28.7552 23.8552 29.2313 23.8552V21.1885ZM31.0349 22.9922L31.0346 30.7877L28.368 30.7876L28.3683 22.9921L31.0349 22.9922ZM31.0346 30.7876C31.0346 30.5083 30.8096 30.2833 30.5303 30.2833V32.95C29.3369 32.95 28.368 31.9811 28.368 30.7876H31.0346ZM30.5303 30.2833C30.4012 30.2833 30.2703 30.336 30.1753 30.4308L32.0591 32.3183C31.6514 32.7253 31.1035 32.95 30.5303 32.95V30.2833ZM30.1735 30.4326C30.0787 30.5277 30.026 30.6585 30.026 30.7876H32.6926C32.6926 31.3608 32.4679 31.9087 32.0609 32.3165L30.1735 30.4326ZM30.026 30.7876V22.9922H32.6926V30.7876H30.026ZM30.026 22.9922C30.026 21.9966 30.8326 21.1885 31.8296 21.1885V23.8552C32.3065 23.8552 32.6926 23.4682 32.6926 22.9922H30.026ZM31.8296 21.1885C32.8252 21.1885 33.6333 21.9952 33.6333 22.9922H30.9666C30.9666 23.469 31.3535 23.8552 31.8296 23.8552V21.1885ZM33.6333 22.9922L33.633 29.2709L30.9663 29.2708L30.9666 22.9921L33.6333 22.9922ZM33.633 29.2708V29.3439H30.9663V29.2708H33.633ZM33.633 29.3439C33.633 29.0636 33.4073 28.8392 33.1289 28.8392V31.5059C31.9359 31.5059 30.9663 30.5376 30.9663 29.3439H33.633ZM33.1289 28.8392C32.9961 28.8392 32.8662 28.894 32.7748 28.985L34.6569 30.8742C34.251 31.2785 33.7053 31.5059 33.1289 31.5059V28.8392ZM32.774 28.9859C32.6776 29.082 32.6246 29.2144 32.6246 29.3435H35.2913C35.2913 29.9174 35.0663 30.4656 34.6578 30.8733L32.774 28.9859ZM32.6246 29.3435V22.9918H35.2913V29.3435H32.6246ZM32.6246 22.9918C32.6246 21.9962 33.4313 21.1882 34.4283 21.1882V23.8548C34.9051 23.8548 35.2913 23.4679 35.2913 22.9918H32.6246ZM34.4283 21.1882C35.4239 21.1882 36.2319 21.9949 36.2319 22.9918H33.5652C33.5652 23.4687 33.9522 23.8548 34.4283 23.8548V21.1882ZM36.2319 22.992L36.2313 27.7864L33.5647 27.7861L33.5652 22.9917L36.2319 22.992ZM36.2313 27.7863C36.2313 27.5079 36.007 27.2822 35.7267 27.2822V29.9489C34.5329 29.9489 33.5647 28.9794 33.5647 27.7863H36.2313ZM35.7267 27.2822C35.5963 27.2822 35.4653 27.3358 35.3711 27.4298L37.255 29.3172C36.8486 29.7228 36.3018 29.9489 35.7267 29.9489V27.2822ZM35.3702 27.4307C35.2746 27.5263 35.2221 27.6579 35.2221 27.7863H37.8887C37.8887 28.3587 37.6648 28.9073 37.2558 29.3163L35.3702 27.4307ZM35.2221 27.7862L35.2224 18.0683L37.889 18.0684L37.8887 27.7863L35.2221 27.7862ZM35.2224 18.0683C35.2224 15.4423 33.3045 13.5235 31.2079 13.5235V10.8568C35.009 10.8568 37.889 14.2125 37.889 18.0683H35.2224ZM29.9259 11.8238L29.9259 11.8237L32.4899 12.5563L32.4899 12.5564L29.9259 11.8238Z" fill="#105877" mask="url(#path-1-inside-1_380_898)"/>
<path d="M15.0737 32.9384C15.1391 32.8207 15.1826 32.7422 15.1986 32.7134L15.4408 32.841C15.4016 32.9116 15.3629 32.9814 15.3247 33.0502C15.2379 33.037 15.1465 33.0116 15.0577 32.9672C15.0632 32.9574 15.0685 32.9478 15.0737 32.9384ZM28.3159 34.764C28.2019 34.574 28.0208 34.4397 27.8061 34.3861C27.5902 34.3325 27.3682 34.3658 27.1785 34.4795L28.3159 34.764ZM29.4204 38.5907L29.4202 38.5906L29.4204 38.5907ZM17.3762 32.0805L17.3762 32.0805L17.3762 32.0805Z" fill="#105877" stroke="#105877" stroke-width="1.33333"/>
<path d="M32.9296 38.8725L32.9297 38.8723L32.9296 38.8725ZM32.9296 38.8725L32.9295 38.8725L32.9296 38.8725ZM38.2346 42.3745L38.2348 42.3746L38.2346 42.3745ZM32.6134 37.7159L32.6452 37.735L32.6134 37.7159Z" fill="#105877" stroke="#105877" stroke-width="1.33333"/>
</svg>
