<svg width="66" height="57" viewBox="0 0 66 57" fill="none" xmlns="http://www.w3.org/2000/svg">
<path d="M66 38.5C66 48.4411 57.9411 56.5 48 56.5L21 56.5C18.2386 56.5 16 54.2614 16 51.5L16 17.5C16 11.9772 20.4772 7.5 26 7.5L61 7.5C63.7614 7.5 66 9.73858 66 12.5L66 38.5Z" fill="#EEF5FB"/>
<path d="M21.9596 14.1941L23.0074 16.6449C23.0785 16.858 23.2738 16.9823 23.4692 17.0001L26.133 17.2487C26.7013 17.302 26.9144 17.9946 26.506 18.3675L24.4992 20.1257C24.3394 20.2677 24.2683 20.4808 24.3216 20.6762L24.9076 23.2868C25.032 23.8373 24.4459 24.2635 23.9487 23.9794L21.6577 22.6119C21.4801 22.5054 21.2493 22.5054 21.0717 22.6119L18.7808 23.9794C18.3013 24.2635 17.6975 23.8373 17.8218 23.2868L18.4078 20.6762C18.4611 20.4808 18.3901 20.2677 18.2302 20.1257L16.2235 18.3675C15.7972 17.9946 16.0281 17.302 16.5964 17.2487L19.2603 17.0001C19.4734 16.9823 19.651 16.858 19.7398 16.6626L20.7875 14.2119C21.0007 13.6791 21.7288 13.6791 21.9596 14.1941Z" stroke="#105877" stroke-width="0.854381" stroke-miterlimit="10" stroke-linecap="round" stroke-linejoin="round"/>
<path d="M33.4452 19.3879C33.4911 12.7184 28.1216 7.27451 21.4521 7.22861C14.7826 7.18271 9.33873 12.5522 9.29283 19.2217C9.24693 25.8912 14.6164 31.3351 21.2859 31.381C27.9554 31.4269 33.3993 26.0574 33.4452 19.3879Z" stroke="#105877" stroke-width="0.854381" stroke-miterlimit="10" stroke-linecap="round" stroke-linejoin="round"/>
<path d="M19.7217 31.2602L16.7205 38.8078L12.92 34.4568L7.18384 34.9896L10.9843 25.4707" stroke="#105877" stroke-width="0.854381" stroke-miterlimit="10" stroke-linecap="round" stroke-linejoin="round"/>
<path d="M22.9893 31.2602L26.0083 38.8078L29.791 34.4568L35.5449 34.9896L31.7267 25.4707" stroke="#105877" stroke-width="0.854381" stroke-miterlimit="10" stroke-linecap="round" stroke-linejoin="round"/>
</svg>
