<svg width="49" height="60" viewBox="0 0 49 60" fill="none" xmlns="http://www.w3.org/2000/svg">
<path d="M32.1191 15.4375C31.3756 15.4358 30.6371 15.5644 29.9256 15.8181L29.9256 15.8181L29.9188 15.8206C29.7082 15.8991 29.4908 15.9235 29.2771 15.8949C29.063 15.8662 28.8492 15.7839 28.6486 15.6458C28.4475 15.5073 28.2629 15.315 28.1101 15.0744C27.9573 14.8338 27.8413 14.5525 27.7723 14.2459C27.7033 13.9395 27.6835 13.6175 27.7148 13.2997C27.746 12.982 27.8273 12.6784 27.9513 12.4069C28.0754 12.1354 28.2382 11.9046 28.4256 11.7246C28.6128 11.5447 28.8197 11.4199 29.0318 11.3497L29.0318 11.3498L29.0424 11.3461C30.0444 10.9895 31.0792 10.8104 32.1175 10.8125L32.1203 10.8125C34.4508 10.8041 36.7411 11.6928 38.6785 13.3818C40.618 15.0725 42.1076 17.4828 42.9286 20.295C43.7494 23.1068 43.8575 26.1697 43.2368 29.0631C42.6161 31.9568 41.2998 34.5261 39.4821 36.428L39.0382 36.8924L39.5973 37.2087C42.5634 38.8865 45.1302 41.5354 47.0203 44.8937L47.022 44.8967C47.1643 45.1455 47.2682 45.4319 47.3244 45.7398C47.3806 46.0476 47.3873 46.3672 47.344 46.6789C47.3007 46.9906 47.2087 47.2847 47.0762 47.544C46.9438 47.8034 46.7751 48.0197 46.5848 48.1847L46.9123 48.5625L46.5791 48.1897C46.2852 48.4523 45.9498 48.5792 45.6216 48.5782C45.3628 48.5762 45.1011 48.4976 44.8569 48.3388C44.6115 48.1792 44.3892 47.9414 44.216 47.6362M32.1191 15.4375C34.2812 15.4377 36.3251 16.5122 37.8123 18.371C39.2972 20.2272 40.1185 22.7252 40.1185 25.3125C40.1185 27.8999 39.2972 30.3978 37.8123 32.254C36.325 34.1131 34.2808 35.1875 32.1185 35.1875C31.695 35.1875 31.2592 35.3971 30.918 35.8236C30.5744 36.2531 30.3685 36.8551 30.3685 37.5C30.3685 38.145 30.5744 38.747 30.918 39.1764C31.2592 39.603 31.695 39.8125 32.1185 39.8125H32.1192C34.508 39.8158 36.8543 40.5362 38.9596 41.9028C41.0635 43.2684 42.8634 45.2378 44.216 47.6362M32.1191 15.4375C32.1193 15.4375 32.1195 15.4375 32.1197 15.4375L32.1185 15.9375V15.4375C32.1187 15.4375 32.1189 15.4375 32.1191 15.4375ZM44.216 47.6362C44.2162 47.6366 44.2164 47.6369 44.2165 47.6373L43.781 47.8828L44.2159 47.6361C44.2159 47.6361 44.216 47.6362 44.216 47.6362ZM24.1999 36.4289L23.7584 36.8932L24.3161 37.2087C27.2822 38.8865 29.849 41.5354 31.739 44.8937L31.7446 44.9036L31.7507 44.9133C31.9053 45.1609 32.0212 45.4505 32.0876 45.7653C32.1539 46.08 32.1686 46.4096 32.1303 46.7328C32.0919 47.0561 32.0017 47.3626 31.8681 47.6335C31.7345 47.9045 31.562 48.1309 31.3661 48.3034C31.1706 48.4755 30.9565 48.5897 30.7389 48.6473C30.522 48.7046 30.2996 48.7062 30.0824 48.6522C29.8646 48.5979 29.65 48.4871 29.4533 48.3183C29.2562 48.1491 29.0819 47.9257 28.9459 47.657L28.941 47.6474L28.9357 47.638C27.5859 45.2348 25.7864 43.2614 23.6815 41.8938C21.5754 40.5255 19.2275 39.8057 16.8373 39.8057C14.4471 39.8057 12.0991 40.5255 9.99299 41.8938C7.88809 43.2614 6.08864 45.2348 4.73882 47.638L4.73796 47.6395C4.56699 47.9464 4.34566 48.1849 4.10106 48.3441C3.85768 48.5024 3.59663 48.5791 3.33906 48.5781L3.33523 48.5782C3.00667 48.5795 2.67091 48.4526 2.37665 48.1897L2.37433 48.1876C1.98983 47.8483 1.70745 47.3103 1.61949 46.6772C1.53166 46.0449 1.65007 45.4019 1.93549 44.8937C3.82556 41.5354 6.39237 38.8865 9.35844 37.2087L9.91612 36.8932L9.47459 36.4289C7.66159 34.5224 6.34997 31.9519 5.73221 29.0591C5.11452 26.1667 5.22366 23.106 6.04352 20.2958C6.86351 17.4852 8.35037 15.0749 10.2866 13.3813C12.2209 11.6895 14.5081 10.7949 16.8373 10.7949C19.1664 10.7949 21.4537 11.6895 23.3879 13.3813C25.3242 15.0749 26.811 17.4852 27.631 20.2958C28.4509 23.106 28.56 26.1667 27.9423 29.0591C27.3246 31.9519 26.0129 34.5224 24.1999 36.4289ZM10.1603 19.8683C9.29506 21.487 8.83726 23.3812 8.83726 25.3125C8.83726 27.8999 9.6586 30.3978 11.1435 32.254C12.6308 34.1131 14.6749 35.1875 16.8373 35.1875C18.4479 35.1875 20.0093 34.5898 21.3246 33.4913C22.6379 32.3944 23.6477 30.8477 24.241 29.0575C24.8343 27.2669 24.9886 25.3009 24.6869 23.405C24.3853 21.5093 23.6391 19.7562 22.531 18.371C21.4222 16.9851 19.9951 16.0238 18.4211 15.6324C16.8445 15.2404 15.2122 15.4435 13.7372 16.2071C12.2654 16.9692 11.0255 18.2497 10.1603 19.8683Z" fill="#105877" stroke="#105877"/>
</svg>
