<svg width="81" height="11" viewBox="0 0 81 11" fill="none" xmlns="http://www.w3.org/2000/svg">
<path d="M6.42379 0.285977C6.35969 0.15606 6.22691 0.0742188 6.08154 0.0742188C5.93617 0.0742188 5.80339 0.15606 5.73929 0.285977L4.17743 3.43659L0.685144 3.94138C0.541492 3.96198 0.421877 4.06214 0.377236 4.19949C0.332023 4.33742 0.369796 4.48794 0.473386 4.58924L3.00075 7.04163L2.40382 10.5042C2.37921 10.6467 2.43816 10.7909 2.55605 10.8756C2.67338 10.9609 2.82905 10.9717 2.95782 10.9048L6.08154 9.26967L9.20526 10.9048C9.33403 10.9717 9.4897 10.9609 9.60702 10.8756C9.72492 10.7909 9.78387 10.6467 9.75926 10.5042L9.16233 7.04163L11.6897 4.58924C11.7933 4.48794 11.8311 4.33742 11.7858 4.19949C11.7412 4.06214 11.6216 3.96198 11.4779 3.94138L7.98564 3.43659L6.42379 0.285977Z" fill="#EB9E47"/>
<path d="M23.5947 0.285977C23.5306 0.15606 23.3978 0.0742188 23.2524 0.0742188C23.1071 0.0742188 22.9743 0.15606 22.9102 0.285977L21.3483 3.43659L17.856 3.94138C17.7124 3.96198 17.5928 4.06214 17.5481 4.19949C17.5029 4.33742 17.5407 4.48794 17.6443 4.58924L20.1716 7.04163L19.5747 10.5042C19.5501 10.6467 19.6091 10.7909 19.727 10.8756C19.8443 10.9609 19.9999 10.9717 20.1287 10.9048L23.2524 9.26967L26.3762 10.9048C26.5049 10.9717 26.6606 10.9609 26.7779 10.8756C26.8958 10.7909 26.9548 10.6467 26.9302 10.5042L26.3332 7.04163L28.8606 4.58924C28.9642 4.48794 29.002 4.33742 28.9567 4.19949C28.9121 4.06214 28.7925 3.96198 28.6488 3.94138L25.1565 3.43659L23.5947 0.285977Z" fill="#EB9E47"/>
<path d="M40.7631 0.285977C40.699 0.15606 40.5663 0.0742188 40.4209 0.0742188C40.2755 0.0742188 40.1427 0.15606 40.0786 0.285977L38.5168 3.43659L35.0245 3.94138C34.8808 3.96198 34.7612 4.06214 34.7166 4.19949C34.6714 4.33742 34.7092 4.48794 34.8127 4.58924L37.3401 7.04163L36.7432 10.5042C36.7186 10.6467 36.7775 10.7909 36.8954 10.8756C37.0127 10.9609 37.1684 10.9717 37.2972 10.9048L40.4209 9.26967L43.5446 10.9048C43.6734 10.9717 43.8291 10.9609 43.9464 10.8756C44.0643 10.7909 44.1232 10.6467 44.0986 10.5042L43.5017 7.04163L46.029 4.58924C46.1326 4.48794 46.1704 4.33742 46.1252 4.19949C46.0806 4.06214 45.9609 3.96198 45.8173 3.94138L42.325 3.43659L40.7631 0.285977Z" fill="#EB9E47"/>
<path d="M57.9316 0.285977C57.8675 0.15606 57.7347 0.0742188 57.5894 0.0742188C57.444 0.0742188 57.3112 0.15606 57.2471 0.285977L55.6852 3.43659L52.193 3.94138C52.0493 3.96198 51.9297 4.06214 51.885 4.19949C51.8398 4.33742 51.8776 4.48794 51.9812 4.58924L54.5086 7.04163L53.9116 10.5042C53.887 10.6467 53.946 10.7909 54.0639 10.8756C54.1812 10.9609 54.3369 10.9717 54.4656 10.9048L57.5894 9.26967L60.7131 10.9048C60.8418 10.9717 60.9975 10.9609 61.1148 10.8756C61.2327 10.7909 61.2917 10.6467 61.2671 10.5042L60.6701 7.04163L63.1975 4.58924C63.3011 4.48794 63.3389 4.33742 63.2937 4.19949C63.249 4.06214 63.1294 3.96198 62.9857 3.94138L59.4935 3.43659L57.9316 0.285977Z" fill="#EB9E47"/>
<path d="M75.1025 0.285977C75.0384 0.15606 74.9056 0.0742188 74.7602 0.0742188C74.6149 0.0742188 74.4821 0.15606 74.418 0.285977L72.8561 3.43659L69.3639 3.94138C69.2202 3.96198 69.1006 4.06214 69.0559 4.19949C69.0107 4.33742 69.0485 4.48794 69.1521 4.58924L71.6795 7.04163L71.0825 10.5042C71.0579 10.6467 71.1169 10.7909 71.2348 10.8756C71.3521 10.9609 71.5078 10.9717 71.6365 10.9048L74.7602 9.26967L77.884 10.9048C78.0127 10.9717 78.1684 10.9609 78.2857 10.8756C78.4036 10.7909 78.4626 10.6467 78.438 10.5042L77.841 7.04163L80.3684 4.58924C80.472 4.48794 80.5098 4.33742 80.4646 4.19949C80.4199 4.06214 80.3003 3.96198 80.1566 3.94138L76.6644 3.43659L75.1025 0.285977Z" fill="#EB9E47"/>
</svg>
