<svg width="86" height="12" viewBox="0 0 86 12" fill="none" xmlns="http://www.w3.org/2000/svg">
<path d="M7.03708 0.294164C6.96918 0.156528 6.82851 0.0698242 6.6745 0.0698242C6.5205 0.0698242 6.37983 0.156528 6.31192 0.294164L4.65727 3.63197L0.957487 4.16675C0.8053 4.18857 0.678578 4.29468 0.631285 4.4402C0.583386 4.58632 0.623403 4.74578 0.733147 4.8531L3.41067 7.4512L2.77827 11.1194C2.7522 11.2704 2.81465 11.4232 2.93956 11.513C3.06385 11.6033 3.22877 11.6148 3.36519 11.5439L6.6745 9.81161L9.98381 11.5439C10.1202 11.6148 10.2852 11.6033 10.4095 11.513C10.5344 11.4232 10.5968 11.2704 10.5707 11.1194L9.93834 7.4512L12.6159 4.8531C12.7256 4.74578 12.7656 4.58632 12.7177 4.4402C12.6704 4.29468 12.5437 4.18857 12.3915 4.16675L8.69174 3.63197L7.03708 0.294164Z" fill="#EB9E47"/>
<path d="M25.2263 0.294164C25.1584 0.156528 25.0177 0.0698242 24.8637 0.0698242C24.7097 0.0698242 24.569 0.156528 24.5011 0.294164L22.8465 3.63197L19.1467 4.16675C18.9945 4.18857 18.8678 4.29468 18.8205 4.4402C18.7726 4.58632 18.8126 4.74578 18.9224 4.8531L21.5999 7.4512L20.9675 11.1194C20.9414 11.2704 21.0039 11.4232 21.1288 11.513C21.2531 11.6033 21.418 11.6148 21.5544 11.5439L24.8637 9.81161L28.173 11.5439C28.3094 11.6148 28.4744 11.6033 28.5987 11.513C28.7236 11.4232 28.786 11.2704 28.7599 11.1194L28.1275 7.4512L30.8051 4.8531C30.9148 4.74578 30.9548 4.58632 30.9069 4.4402C30.8596 4.29468 30.7329 4.18857 30.5807 4.16675L26.8809 3.63197L25.2263 0.294164Z" fill="#EB9E47"/>
<path d="M43.4165 0.294164C43.3486 0.156528 43.2079 0.0698242 43.0539 0.0698242C42.8999 0.0698242 42.7592 0.156528 42.6913 0.294164L41.0367 3.63197L37.3369 4.16675C37.1847 4.18857 37.058 4.29468 37.0107 4.4402C36.9628 4.58632 37.0028 4.74578 37.1125 4.8531L39.7901 7.4512L39.1577 11.1194C39.1316 11.2704 39.194 11.4232 39.319 11.513C39.4432 11.6033 39.6082 11.6148 39.7446 11.5439L43.0539 9.81161L46.3632 11.5439C46.4996 11.6148 46.6645 11.6033 46.7888 11.513C46.9137 11.4232 46.9762 11.2704 46.9501 11.1194L46.3177 7.4512L48.9953 4.8531C49.105 4.74578 49.145 4.58632 49.0971 4.4402C49.0498 4.29468 48.9231 4.18857 48.7709 4.16675L45.0711 3.63197L43.4165 0.294164Z" fill="#EB9E47"/>
<path d="M61.6057 0.294164C61.5378 0.156528 61.3971 0.0698242 61.2431 0.0698242C61.0891 0.0698242 60.9484 0.156528 60.8805 0.294164L59.2259 3.63197L55.5261 4.16675C55.3739 4.18857 55.2472 4.29468 55.1999 4.4402C55.152 4.58632 55.192 4.74578 55.3018 4.8531L57.9793 7.4512L57.3469 11.1194C57.3208 11.2704 57.3833 11.4232 57.5082 11.513C57.6325 11.6033 57.7974 11.6148 57.9338 11.5439L61.2431 9.81161L64.5524 11.5439C64.6888 11.6148 64.8538 11.6033 64.9781 11.513C65.103 11.4232 65.1654 11.2704 65.1393 11.1194L64.5069 7.4512L67.1845 4.8531C67.2942 4.74578 67.3342 4.58632 67.2863 4.4402C67.239 4.29468 67.1123 4.18857 66.9601 4.16675L63.2603 3.63197L61.6057 0.294164Z" fill="#EB9E47"/>
<path d="M79.7949 0.294164C79.727 0.156528 79.5863 0.0698242 79.4323 0.0698242C79.2783 0.0698242 79.1376 0.156528 79.0697 0.294164L77.4151 3.63197L73.7153 4.16675C73.5631 4.18857 73.4364 4.29468 73.3891 4.4402C73.3412 4.58632 73.3812 4.74578 73.491 4.8531L76.1685 7.4512L75.5361 11.1194C75.51 11.2704 75.5725 11.4232 75.6974 11.513C75.8217 11.6033 75.9866 11.6148 76.123 11.5439L79.4323 9.81161L82.7416 11.5439C82.878 11.6148 83.043 11.6033 83.1673 11.513C83.2922 11.4232 83.3546 11.2704 83.3285 11.1194L82.6962 7.4512L85.3737 4.8531C85.4834 4.74578 85.5234 4.58632 85.4755 4.4402C85.4282 4.29468 85.3015 4.18857 85.1493 4.16675L81.4496 3.63197L79.7949 0.294164Z" fill="#EB9E47"/>
</svg>
