<svg width="86" height="12" viewBox="0 0 86 12" fill="none" xmlns="http://www.w3.org/2000/svg">
<path d="M6.66282 0.468968C6.59491 0.331333 6.45424 0.244629 6.30024 0.244629C6.14623 0.244629 6.00556 0.331333 5.93766 0.468968L4.283 3.80677L0.583219 4.34155C0.431032 4.36338 0.304311 4.46949 0.257017 4.615C0.209118 4.76113 0.249135 4.92059 0.35888 5.02791L3.0364 7.626L2.40401 11.2943C2.37793 11.4452 2.44039 11.598 2.56529 11.6878C2.68958 11.7781 2.8545 11.7896 2.99093 11.7187L6.30024 9.98642L9.60955 11.7187C9.74597 11.7896 9.91089 11.7781 10.0352 11.6878C10.1601 11.598 10.2225 11.4452 10.1965 11.2943L9.56407 7.626L12.2416 5.02791C12.3513 4.92059 12.3914 4.76113 12.3435 4.615C12.2962 4.46949 12.1694 4.36338 12.0173 4.34155L8.31747 3.80677L6.66282 0.468968Z" fill="#EB9E47"/>
<path d="M24.853 0.468968C24.7851 0.331333 24.6444 0.244629 24.4904 0.244629C24.3364 0.244629 24.1957 0.331333 24.1278 0.468968L22.4732 3.80677L18.7734 4.34155C18.6212 4.36338 18.4945 4.46949 18.4472 4.615C18.3993 4.76113 18.4393 4.92059 18.5491 5.02791L21.2266 7.626L20.5942 11.2943C20.5681 11.4452 20.6306 11.598 20.7555 11.6878C20.8798 11.7781 21.0447 11.7896 21.1811 11.7187L24.4904 9.98642L27.7997 11.7187C27.9362 11.7896 28.1011 11.7781 28.2254 11.6878C28.3503 11.598 28.4127 11.4452 28.3867 11.2943L27.7543 7.626L30.4318 5.02791C30.5415 4.92059 30.5815 4.76113 30.5336 4.615C30.4863 4.46949 30.3596 4.36338 30.2074 4.34155L26.5077 3.80677L24.853 0.468968Z" fill="#EB9E47"/>
<path d="M43.0422 0.468968C42.9743 0.331333 42.8336 0.244629 42.6796 0.244629C42.5256 0.244629 42.385 0.331333 42.317 0.468968L40.6624 3.80677L36.9626 4.34155C36.8104 4.36338 36.6837 4.46949 36.6364 4.615C36.5885 4.76113 36.6285 4.92059 36.7383 5.02791L39.4158 7.626L38.7834 11.2943C38.7573 11.4452 38.8198 11.598 38.9447 11.6878C39.069 11.7781 39.2339 11.7896 39.3703 11.7187L42.6796 9.98642L45.9889 11.7187C46.1254 11.7896 46.2903 11.7781 46.4146 11.6878C46.5395 11.598 46.6019 11.4452 46.5759 11.2943L45.9435 7.626L48.621 5.02791C48.7307 4.92059 48.7707 4.76113 48.7228 4.615C48.6756 4.46949 48.5488 4.36338 48.3966 4.34155L44.6969 3.80677L43.0422 0.468968Z" fill="#EB9E47"/>
<path d="M61.2314 0.468968C61.1635 0.331333 61.0228 0.244629 60.8688 0.244629C60.7148 0.244629 60.5742 0.331333 60.5063 0.468968L58.8516 3.80677L55.1518 4.34155C54.9996 4.36338 54.8729 4.46949 54.8256 4.615C54.7777 4.76113 54.8177 4.92059 54.9275 5.02791L57.605 7.626L56.9726 11.2943C56.9465 11.4452 57.009 11.598 57.1339 11.6878C57.2582 11.7781 57.4231 11.7896 57.5595 11.7187L60.8688 9.98642L64.1781 11.7187C64.3146 11.7896 64.4795 11.7781 64.6038 11.6878C64.7287 11.598 64.7911 11.4452 64.7651 11.2943L64.1327 7.626L66.8102 5.02791C66.9199 4.92059 66.96 4.76113 66.9121 4.615C66.8648 4.46949 66.738 4.36338 66.5859 4.34155L62.8861 3.80677L61.2314 0.468968Z" fill="#EB9E47"/>
<path d="M79.4216 0.468968C79.3537 0.331333 79.213 0.244629 79.059 0.244629C78.905 0.244629 78.7644 0.331333 78.6964 0.468968L77.0418 3.80677L73.342 4.34155C73.1898 4.36338 73.0631 4.46949 73.0158 4.615C72.9679 4.76113 73.0079 4.92059 73.1177 5.02791L75.7952 7.626L75.1628 11.2943C75.1367 11.4452 75.1992 11.598 75.3241 11.6878C75.4484 11.7781 75.6133 11.7896 75.7497 11.7187L79.059 9.98642L82.3683 11.7187C82.5048 11.7896 82.6697 11.7781 82.794 11.6878C82.9189 11.598 82.9813 11.4452 82.9553 11.2943L82.3229 7.626L85.0004 5.02791C85.1101 4.92059 85.1501 4.76113 85.1022 4.615C85.0549 4.46949 84.9282 4.36338 84.776 4.34155L81.0763 3.80677L79.4216 0.468968Z" fill="#EB9E47"/>
</svg>
