<svg width="86" height="13" viewBox="0 0 86 13" fill="none" xmlns="http://www.w3.org/2000/svg">
<path d="M7.32883 0.900121C7.26092 0.762485 7.12026 0.675781 6.96625 0.675781C6.81225 0.675781 6.67158 0.762485 6.60367 0.900121L4.94902 4.23793L1.24923 4.7727C1.09705 4.79453 0.970326 4.90064 0.923033 5.04616C0.875134 5.19228 0.915151 5.35174 1.0249 5.45906L3.70242 8.05715L3.07002 11.7254C3.04395 11.8764 3.1064 12.0292 3.2313 12.1189C3.3556 12.2093 3.52052 12.2208 3.65694 12.1498L6.96625 10.4176L10.2756 12.1498C10.412 12.2208 10.5769 12.2093 10.7012 12.1189C10.8261 12.0292 10.8886 11.8764 10.8625 11.7254L10.2301 8.05715L12.9076 5.45906C13.0174 5.35174 13.0574 5.19228 13.0095 5.04616C12.9622 4.90064 12.8355 4.79453 12.6833 4.7727L8.98349 4.23793L7.32883 0.900121Z" fill="#EB9E47"/>
<path d="M25.519 0.900121C25.4511 0.762485 25.3104 0.675781 25.1564 0.675781C25.0024 0.675781 24.8618 0.762485 24.7939 0.900121L23.1392 4.23793L19.4394 4.7727C19.2872 4.79453 19.1605 4.90064 19.1132 5.04616C19.0653 5.19228 19.1053 5.35174 19.2151 5.45906L21.8926 8.05715L21.2602 11.7254C21.2341 11.8764 21.2966 12.0292 21.4215 12.1189C21.5458 12.2093 21.7107 12.2208 21.8471 12.1498L25.1564 10.4176L28.4657 12.1498C28.6022 12.2208 28.7671 12.2093 28.8914 12.1189C29.0163 12.0292 29.0787 11.8764 29.0527 11.7254L28.4203 8.05715L31.0978 5.45906C31.2075 5.35174 31.2476 5.19228 31.1997 5.04616C31.1524 4.90064 31.0256 4.79453 30.8735 4.7727L27.1737 4.23793L25.519 0.900121Z" fill="#EB9E47"/>
<path d="M43.7073 0.900121C43.6393 0.762485 43.4987 0.675781 43.3447 0.675781C43.1907 0.675781 43.05 0.762485 42.9821 0.900121L41.3274 4.23793L37.6277 4.7727C37.4755 4.79453 37.3487 4.90064 37.3015 5.04616C37.2536 5.19228 37.2936 5.35174 37.4033 5.45906L40.0808 8.05715L39.4484 11.7254C39.4224 11.8764 39.4848 12.0292 39.6097 12.1189C39.734 12.2093 39.8989 12.2208 40.0354 12.1498L43.3447 10.4176L46.654 12.1498C46.7904 12.2208 46.9553 12.2093 47.0796 12.1189C47.2045 12.0292 47.267 11.8764 47.2409 11.7254L46.6085 8.05715L49.286 5.45906C49.3958 5.35174 49.4358 5.19228 49.3879 5.04616C49.3406 4.90064 49.2139 4.79453 49.0617 4.7727L45.3619 4.23793L43.7073 0.900121Z" fill="#EB9E47"/>
<path d="M61.8974 0.900121C61.8295 0.762485 61.6889 0.675781 61.5349 0.675781C61.3808 0.675781 61.2402 0.762485 61.1723 0.900121L59.5176 4.23793L55.8178 4.7727C55.6657 4.79453 55.5389 4.90064 55.4916 5.04616C55.4437 5.19228 55.4838 5.35174 55.5935 5.45906L58.271 8.05715L57.6386 11.7254C57.6126 11.8764 57.675 12.0292 57.7999 12.1189C57.9242 12.2093 58.0891 12.2208 58.2255 12.1498L61.5349 10.4176L64.8442 12.1498C64.9806 12.2208 65.1455 12.2093 65.2698 12.1189C65.3947 12.0292 65.4572 11.8764 65.4311 11.7254L64.7987 8.05715L67.4762 5.45906C67.586 5.35174 67.626 5.19228 67.5781 5.04616C67.5308 4.90064 67.4041 4.79453 67.2519 4.7727L63.5521 4.23793L61.8974 0.900121Z" fill="#EB9E47"/>
<path d="M80.0876 0.900121C80.0197 0.762485 79.879 0.675781 79.725 0.675781C79.571 0.675781 79.4304 0.762485 79.3625 0.900121L77.7078 4.23793L74.008 4.7727C73.8558 4.79453 73.7291 4.90064 73.6818 5.04616C73.6339 5.19228 73.6739 5.35174 73.7837 5.45906L76.4612 8.05715L75.8288 11.7254C75.8027 11.8764 75.8652 12.0292 75.9901 12.1189C76.1144 12.2093 76.2793 12.2208 76.4157 12.1498L79.725 10.4176L83.0344 12.1498C83.1708 12.2208 83.3357 12.2093 83.46 12.1189C83.5849 12.0292 83.6473 11.8764 83.6213 11.7254L82.9889 8.05715L85.6664 5.45906C85.7761 5.35174 85.8162 5.19228 85.7683 5.04616C85.721 4.90064 85.5942 4.79453 85.4421 4.7727L81.7423 4.23793L80.0876 0.900121Z" fill="#EB9E47"/>
</svg>
