<svg width="86" height="12" viewBox="0 0 86 12" fill="none" xmlns="http://www.w3.org/2000/svg">
<path d="M6.68064 0.669164C6.61273 0.531528 6.47206 0.444824 6.31806 0.444824C6.16405 0.444824 6.02339 0.531528 5.95548 0.669164L4.30082 4.00697L0.601041 4.54175C0.448854 4.56357 0.322133 4.66968 0.27484 4.8152C0.22694 4.96132 0.266958 5.12078 0.376702 5.2281L3.05422 7.8262L2.42183 11.4944C2.39576 11.6454 2.45821 11.7982 2.58311 11.888C2.70741 11.9783 2.87233 11.9898 3.00875 11.9189L6.31806 10.1866L9.62737 11.9189C9.76379 11.9898 9.92871 11.9783 10.053 11.888C10.1779 11.7982 10.2404 11.6454 10.2143 11.4944L9.58189 7.8262L12.2594 5.2281C12.3692 5.12078 12.4092 4.96132 12.3613 4.8152C12.314 4.66968 12.1873 4.56357 12.0351 4.54175L8.33529 4.00697L6.68064 0.669164Z" fill="#EB9E47"/>
<path d="M24.8708 0.669164C24.8029 0.531528 24.6622 0.444824 24.5082 0.444824C24.3542 0.444824 24.2136 0.531528 24.1457 0.669164L22.491 4.00697L18.7912 4.54175C18.639 4.56357 18.5123 4.66968 18.465 4.8152C18.4171 4.96132 18.4571 5.12078 18.5669 5.2281L21.2444 7.8262L20.612 11.4944C20.5859 11.6454 20.6484 11.7982 20.7733 11.888C20.8976 11.9783 21.0625 11.9898 21.1989 11.9189L24.5082 10.1866L27.8176 11.9189C27.954 11.9898 28.1189 11.9783 28.2432 11.888C28.3681 11.7982 28.4305 11.6454 28.4045 11.4944L27.7721 7.8262L30.4496 5.2281C30.5593 5.12078 30.5994 4.96132 30.5515 4.8152C30.5042 4.66968 30.3774 4.56357 30.2253 4.54175L26.5255 4.00697L24.8708 0.669164Z" fill="#EB9E47"/>
<path d="M43.06 0.669164C42.9921 0.531528 42.8515 0.444824 42.6975 0.444824C42.5434 0.444824 42.4028 0.531528 42.3349 0.669164L40.6802 4.00697L36.9804 4.54175C36.8282 4.56357 36.7015 4.66968 36.6542 4.8152C36.6063 4.96132 36.6464 5.12078 36.7561 5.2281L39.4336 7.8262L38.8012 11.4944C38.7752 11.6454 38.8376 11.7982 38.9625 11.888C39.0868 11.9783 39.2517 11.9898 39.3881 11.9189L42.6975 10.1866L46.0068 11.9189C46.1432 11.9898 46.3081 11.9783 46.4324 11.888C46.5573 11.7982 46.6198 11.6454 46.5937 11.4944L45.9613 7.8262L48.6388 5.2281C48.7486 5.12078 48.7886 4.96132 48.7407 4.8152C48.6934 4.66968 48.5667 4.56357 48.4145 4.54175L44.7147 4.00697L43.06 0.669164Z" fill="#EB9E47"/>
<path d="M61.249 0.669164C61.1811 0.531528 61.0404 0.444824 60.8864 0.444824C60.7324 0.444824 60.5917 0.531528 60.5238 0.669164L58.8692 4.00697L55.1694 4.54175C55.0172 4.56357 54.8905 4.66968 54.8432 4.8152C54.7953 4.96132 54.8353 5.12078 54.9451 5.2281L57.6226 7.8262L56.9902 11.4944C56.9641 11.6454 57.0266 11.7982 57.1515 11.888C57.2758 11.9783 57.4407 11.9898 57.5771 11.9189L60.8864 10.1866L64.1957 11.9189C64.3321 11.9898 64.4971 11.9783 64.6214 11.888C64.7463 11.7982 64.8087 11.6454 64.7826 11.4944L64.1503 7.8262L66.8278 5.2281C66.9375 5.12078 66.9775 4.96132 66.9296 4.8152C66.8823 4.66968 66.7556 4.56357 66.6034 4.54175L62.9037 4.00697L61.249 0.669164Z" fill="#EB9E47"/>
<path d="M79.4392 0.669164C79.3713 0.531528 79.2306 0.444824 79.0766 0.444824C78.9226 0.444824 78.7819 0.531528 78.714 0.669164L77.0594 4.00697L73.3596 4.54175C73.2074 4.56357 73.0807 4.66968 73.0334 4.8152C72.9855 4.96132 73.0255 5.12078 73.1352 5.2281L75.8128 7.8262L75.1804 11.4944C75.1543 11.6454 75.2168 11.7982 75.3417 11.888C75.466 11.9783 75.6309 11.9898 75.7673 11.9189L79.0766 10.1866L82.3859 11.9189C82.5223 11.9898 82.6873 11.9783 82.8116 11.888C82.9365 11.7982 82.9989 11.6454 82.9728 11.4944L82.3404 7.8262L85.018 5.2281C85.1277 5.12078 85.1677 4.96132 85.1198 4.8152C85.0725 4.66968 84.9458 4.56357 84.7936 4.54175L81.0938 4.00697L79.4392 0.669164Z" fill="#EB9E47"/>
</svg>
