<svg width="27" height="27" viewBox="0 0 27 27" fill="none" xmlns="http://www.w3.org/2000/svg">
<path d="M23.4793 3.17052C22.9375 2.61436 22.1355 2.40716 21.3876 2.62525L3.94965 7.69619C3.16066 7.91539 2.60143 8.54462 2.45078 9.34397C2.29688 10.1575 2.83445 11.1902 3.53673 11.6221L8.98921 14.9732C9.54844 15.3168 10.2702 15.2306 10.733 14.7638L16.9766 8.48136C17.2909 8.15421 17.8111 8.15421 18.1255 8.48136C18.4398 8.79762 18.4398 9.31017 18.1255 9.63732L11.871 15.9209C11.4071 16.3866 11.3204 17.1117 11.6618 17.6744L14.9934 23.1817C15.3835 23.8359 16.0555 24.2067 16.7924 24.2067C16.8791 24.2067 16.9766 24.2067 17.0634 24.1958C17.9087 24.0868 18.5806 23.5088 18.8299 22.6909L23.9996 5.27523C24.2272 4.53368 24.0212 3.72669 23.4793 3.17052Z" fill="white"/>
</svg>
