<svg width="32" height="33" viewBox="0 0 32 33" fill="none" xmlns="http://www.w3.org/2000/svg">
<path opacity="0.1" fill-rule="evenodd" clip-rule="evenodd" d="M0 16.3604C0 7.5238 7.16344 0.360352 16 0.360352C24.8366 0.360352 32 7.5238 32 16.3604C32 25.1969 24.8366 32.3604 16 32.3604C7.16344 32.3604 0 25.1969 0 16.3604Z" fill="white"/>
<path fill-rule="evenodd" clip-rule="evenodd" d="M22.6679 10.8604C23.4022 11.0619 23.9805 11.6556 24.1768 12.4096C24.5335 13.7762 24.5335 16.6275 24.5335 16.6275C24.5335 16.6275 24.5335 19.4787 24.1768 20.8453C23.9805 21.5993 23.4022 22.1931 22.6679 22.3947C21.3371 22.7608 16.0001 22.7608 16.0001 22.7608C16.0001 22.7608 10.6632 22.7608 9.3323 22.3947C8.59795 22.1931 8.01962 21.5993 7.82335 20.8453C7.4668 19.4787 7.4668 16.6275 7.4668 16.6275C7.4668 16.6275 7.4668 13.7762 7.82335 12.4096C8.01962 11.6556 8.59795 11.0619 9.3323 10.8604C10.6632 10.4941 16.0001 10.4941 16.0001 10.4941C16.0001 10.4941 21.3371 10.4941 22.6679 10.8604ZM14.4001 14.2274V19.5608L18.6668 16.8942L14.4001 14.2274Z" fill="white"/>
</svg>
