<svg width="32" height="33" viewBox="0 0 32 33" fill="none" xmlns="http://www.w3.org/2000/svg">
<path opacity="0.1" fill-rule="evenodd" clip-rule="evenodd" d="M0 16.3604C0 7.5238 7.16344 0.360352 16 0.360352C24.8366 0.360352 32 7.5238 32 16.3604C32 25.1969 24.8366 32.3604 16 32.3604C7.16344 32.3604 0 25.1969 0 16.3604Z" fill="white"/>
<path fill-rule="evenodd" clip-rule="evenodd" d="M15.5208 13.365L15.5544 13.9186L14.9948 13.8508C12.9579 13.5909 11.1784 12.7096 9.66756 11.2295L8.92891 10.4951L8.73865 11.0374C8.33575 12.2464 8.59316 13.5231 9.43253 14.3818C9.8802 14.8564 9.77948 14.9242 9.00725 14.6417C8.73865 14.5513 8.50363 14.4835 8.48124 14.5174C8.4029 14.5965 8.6715 15.6247 8.88414 16.0315C9.17513 16.5964 9.76828 17.15 10.4174 17.4777L10.9658 17.7376L10.3167 17.7489C9.68994 17.7489 9.66756 17.7602 9.73471 17.9974C9.95854 18.7318 10.8427 19.5115 11.8276 19.8504L12.5214 20.0877L11.9171 20.4492C11.0218 20.969 9.96973 21.2628 8.91772 21.2853C8.41409 21.2966 8 21.3418 8 21.3757C8 21.4887 9.36538 22.1215 10.16 22.37C12.5438 23.1044 15.3753 22.7881 17.5017 21.5339C19.0126 20.6413 20.5235 18.8674 21.2286 17.15C21.6091 16.2348 21.9896 14.5626 21.9896 13.7604C21.9896 13.2407 22.0232 13.1729 22.6499 12.5515C23.0192 12.1899 23.3662 11.7944 23.4333 11.6815C23.5452 11.4668 23.534 11.4668 22.9633 11.6589C22.012 11.9978 21.8777 11.9526 22.3477 11.4442C22.6947 11.0826 23.1088 10.4273 23.1088 10.2352C23.1088 10.2013 22.9409 10.2578 22.7506 10.3595C22.5492 10.4725 22.1015 10.642 21.7658 10.7437L21.1614 10.9357L20.613 10.5629C20.3108 10.3595 19.8856 10.1335 19.6617 10.0657C19.0909 9.90756 18.218 9.93016 17.7032 10.1109C16.3042 10.6194 15.4201 11.93 15.5208 13.365Z" fill="white"/>
</svg>
