<svg width="32" height="33" viewBox="0 0 32 33" fill="none" xmlns="http://www.w3.org/2000/svg">
<path opacity="0.1" fill-rule="evenodd" clip-rule="evenodd" d="M0 16.3604C0 7.5238 7.16344 0.360352 16 0.360352C24.8366 0.360352 32 7.5238 32 16.3604C32 25.1969 24.8366 32.3604 16 32.3604C7.16344 32.3604 0 25.1969 0 16.3604Z" fill="white"/>
<path fill-rule="evenodd" clip-rule="evenodd" d="M24.5335 16.3487C24.5335 16.9257 24.4747 17.502 24.3593 18.0638C24.2468 18.6122 24.0801 19.1506 23.8618 19.6653C23.6485 20.1709 23.3839 20.6581 23.0747 21.1124C22.7701 21.5639 22.4192 21.9875 22.0338 22.3736C21.6475 22.7581 21.2225 23.108 20.7712 23.4138C20.3154 23.7209 19.8275 23.9851 19.3216 24.1994C18.8061 24.4166 18.2665 24.583 17.7186 24.6954C17.1561 24.8111 16.5777 24.8701 15.9997 24.8701C15.4214 24.8701 14.843 24.8111 14.2813 24.6954C13.7326 24.583 13.1929 24.4166 12.6779 24.1994C12.1721 23.9851 11.6837 23.7209 11.2278 23.4138C10.7766 23.108 10.3516 22.7581 9.96611 22.3736C9.58027 21.9875 9.2294 21.5639 8.92439 21.1124C8.61687 20.6581 8.35184 20.1708 8.13768 19.6653C7.9193 19.1506 7.75224 18.6122 7.63931 18.0638C7.52515 17.502 7.4668 16.9257 7.4668 16.3487C7.4668 15.7711 7.52511 15.1936 7.63934 14.6331C7.75227 14.0847 7.91934 13.5454 8.13771 13.0316C8.35187 12.5256 8.6169 12.038 8.92442 11.5836C9.22943 11.1317 9.5803 10.709 9.96614 10.3224C10.3516 9.93794 10.7766 9.58887 11.2279 9.28347C11.6837 8.97513 12.1721 8.71095 12.6779 8.49623C13.193 8.27857 13.7326 8.11174 14.2814 8.00025C14.8431 7.88541 15.4214 7.82715 15.9998 7.82715C16.5777 7.82715 17.1561 7.88541 17.7186 8.00025C18.2665 8.11178 18.8061 8.2786 19.3216 8.49623C19.8275 8.71091 20.3154 8.97513 20.7713 9.28347C21.2225 9.58887 21.6476 9.93794 22.0338 10.3224C22.4193 10.709 22.7701 11.1317 23.0747 11.5836C23.3839 12.038 23.6485 12.5257 23.8618 13.0316C24.0801 13.5454 24.2468 14.0847 24.3593 14.6331C24.4747 15.1936 24.5335 15.7711 24.5335 16.3487ZM12.8904 9.76653C10.8582 10.7248 9.34143 12.5947 8.86848 14.8482C9.0606 14.8499 12.0974 14.8882 15.5963 13.9599C14.335 11.7221 12.9875 9.89597 12.8904 9.76653ZM16.2001 15.0804C12.4479 16.2022 8.84724 16.1214 8.71808 16.1165C8.71597 16.1947 8.71223 16.2704 8.71223 16.3486C8.71223 18.2181 9.41851 19.9224 10.5794 21.2111C10.5769 21.2073 12.5712 17.6743 16.5039 16.4044C16.5989 16.3728 16.6956 16.3445 16.7914 16.317C16.6085 15.9035 16.4089 15.489 16.2001 15.0804ZM20.8125 10.8871C19.5295 9.75736 17.8448 9.07211 15.9997 9.07211C15.4076 9.07211 14.833 9.14368 14.2825 9.27599C14.3917 9.42248 15.7605 11.2358 17.0068 13.5209C19.7566 12.4915 20.7945 10.9137 20.8125 10.8871ZM17.2882 17.5228C17.2719 17.5282 17.2557 17.5328 17.2398 17.5387C12.9401 19.0354 11.536 22.0519 11.5208 22.0848C12.7579 23.0456 14.3097 23.6252 15.9998 23.6252C17.009 23.6252 17.9703 23.42 18.8449 23.0485C18.737 22.4127 18.3136 20.1841 17.2882 17.5228ZM20.072 22.3836C21.7083 21.281 22.8705 19.5301 23.1946 17.502C23.0446 17.4537 21.0058 16.8092 18.6536 17.1858C19.6095 19.8088 19.9978 21.945 20.072 22.3836ZM17.5678 14.6052C17.7369 14.9523 17.9007 15.3055 18.0519 15.6604C18.1057 15.7878 18.1582 15.9126 18.2095 16.0374C20.7129 15.7228 23.1793 16.2521 23.2847 16.2737C23.2681 14.5486 22.6501 12.9654 21.6276 11.7259C21.6138 11.7454 20.445 13.4318 17.5678 14.6052Z" fill="white"/>
</svg>
