<svg width="32" height="33" viewBox="0 0 32 33" fill="none" xmlns="http://www.w3.org/2000/svg">
<path opacity="0.1" fill-rule="evenodd" clip-rule="evenodd" d="M0 16.3604C0 7.5238 7.16344 0.360352 16 0.360352C24.8366 0.360352 32 7.5238 32 16.3604C32 25.1969 24.8366 32.3604 16 32.3604C7.16344 32.3604 0 25.1969 0 16.3604Z" fill="white"/>
<path fill-rule="evenodd" clip-rule="evenodd" d="M16.0009 7.82715C13.6834 7.82715 13.3925 7.83728 12.4823 7.8787C11.5739 7.9203 10.9538 8.06413 10.4112 8.27515C9.84993 8.49311 9.37384 8.78467 8.89952 9.25916C8.42485 9.73348 8.13329 10.2096 7.91462 10.7706C7.70307 11.3134 7.55906 11.9337 7.51818 12.8418C7.47746 13.752 7.4668 14.043 7.4668 16.3606C7.4668 18.6781 7.47711 18.9681 7.51835 19.8783C7.56013 20.7867 7.70395 21.4068 7.9148 21.9494C8.13294 22.5107 8.4245 22.9868 8.89899 23.4611C9.37313 23.9358 9.84922 24.228 10.4101 24.446C10.9531 24.657 11.5733 24.8008 12.4816 24.8424C13.3918 24.8839 13.6825 24.894 15.9999 24.894C18.3176 24.894 18.6075 24.8839 19.5178 24.8424C20.4262 24.8008 21.047 24.657 21.59 24.446C22.151 24.228 22.6264 23.9358 23.1006 23.4611C23.5752 22.9868 23.8668 22.5107 24.0855 21.9496C24.2952 21.4068 24.4392 20.7866 24.4819 19.8785C24.5228 18.9682 24.5335 18.6781 24.5335 16.3606C24.5335 14.043 24.5228 13.7522 24.4819 12.842C24.4392 11.9335 24.2952 11.3134 24.0855 10.7708C23.8668 10.2096 23.5752 9.73348 23.1006 9.25916C22.6259 8.78449 22.1512 8.49293 21.5894 8.27515C21.0454 8.06413 20.425 7.9203 19.5165 7.8787C18.6063 7.83728 18.3165 7.82715 15.9983 7.82715H16.0009ZM15.2354 9.36492C15.4626 9.36456 15.7161 9.36492 16.0009 9.36492C18.2793 9.36492 18.5494 9.3731 19.4491 9.41399C20.2811 9.45203 20.7327 9.59105 21.0335 9.70786C21.4317 9.86252 21.7156 10.0474 22.0141 10.3461C22.3128 10.6448 22.4977 10.9292 22.6527 11.3274C22.7695 11.6279 22.9087 12.0794 22.9466 12.9114C22.9875 13.811 22.9963 14.0812 22.9963 16.3586C22.9963 18.6359 22.9875 18.9062 22.9466 19.8057C22.9085 20.6377 22.7695 21.0893 22.6527 21.3898C22.498 21.788 22.3128 22.0715 22.0141 22.37C21.7154 22.6687 21.4319 22.8536 21.0335 23.0083C20.733 23.1256 20.2811 23.2643 19.4491 23.3023C18.5495 23.3432 18.2793 23.3521 16.0009 23.3521C13.7223 23.3521 13.4522 23.3432 12.5527 23.3023C11.7207 23.2639 11.2691 23.1249 10.9681 23.0081C10.5699 22.8534 10.2855 22.6685 9.98679 22.3699C9.68812 22.0712 9.50323 21.7874 9.3482 21.389C9.2314 21.0886 9.0922 20.637 9.05433 19.805C9.01344 18.9055 9.00527 18.6352 9.00527 16.3565C9.00527 14.0777 9.01344 13.8089 9.05433 12.9093C9.09238 12.0773 9.2314 11.6257 9.3482 11.3249C9.50287 10.9267 9.68812 10.6423 9.98679 10.3436C10.2855 10.0449 10.5699 9.86003 10.9681 9.70501C11.2689 9.58768 11.7207 9.44901 12.5527 9.41079C13.3399 9.37523 13.645 9.36456 15.2354 9.36278V9.36492ZM20.556 10.7818C19.9906 10.7818 19.532 11.24 19.532 11.8055C19.532 12.3708 19.9906 12.8295 20.556 12.8295C21.1213 12.8295 21.58 12.3708 21.58 11.8055C21.58 11.2401 21.1213 10.7818 20.556 10.7818ZM16.0009 11.9783C13.5808 11.9783 11.6187 13.9404 11.6187 16.3605C11.6187 18.7807 13.5808 20.7419 16.0009 20.7419C18.4211 20.7419 20.3825 18.7807 20.3825 16.3605C20.3825 13.9404 18.4211 11.9783 16.0009 11.9783ZM16.0009 13.5161C17.5718 13.5161 18.8454 14.7895 18.8454 16.3605C18.8454 17.9314 17.5718 19.205 16.0009 19.205C14.4299 19.205 13.1564 17.9314 13.1564 16.3605C13.1564 14.7895 14.4299 13.5161 16.0009 13.5161Z" fill="white"/>
</svg>
