<svg width="123" height="20" viewBox="0 0 123 20" fill="none" xmlns="http://www.w3.org/2000/svg">
<path opacity="0.4" d="M53.2221 1.42501L53.294 1.98349L53.294 1.98349L53.2221 1.42501ZM122.763 17.1913L116.297 17.8736L118.939 11.9327L122.763 17.1913ZM0.855469 19.1621C0.616591 18.6522 0.616596 18.6522 0.616602 18.6522C0.616606 18.6522 0.616613 18.6522 0.616619 18.6522C0.616633 18.6522 0.616651 18.6522 0.616672 18.6522C0.616716 18.6521 0.616776 18.6521 0.616853 18.6521C0.617007 18.652 0.617227 18.6519 0.617513 18.6518C0.618085 18.6515 0.618922 18.6511 0.620022 18.6506C0.622223 18.6496 0.625478 18.648 0.62978 18.646C0.638382 18.642 0.651167 18.6361 0.66807 18.6282C0.701874 18.6124 0.752144 18.589 0.818341 18.5584C0.950734 18.497 1.14684 18.4064 1.40235 18.2894L1.87146 19.3132C1.6175 19.4295 1.42288 19.5194 1.29193 19.5801C1.22645 19.6104 1.17689 19.6335 1.14378 19.6489C1.12722 19.6566 1.11478 19.6625 1.10652 19.6663C1.10239 19.6682 1.0993 19.6697 1.09727 19.6706C1.09626 19.6711 1.0955 19.6715 1.09502 19.6717C1.09477 19.6718 1.09459 19.6719 1.09448 19.6719C1.09443 19.672 1.09439 19.672 1.09436 19.672C1.09435 19.672 1.09435 19.672 1.09434 19.672C1.09434 19.672 1.09434 19.672 1.09434 19.672C1.09434 19.672 1.09435 19.672 0.855469 19.1621ZM2.97896 17.5744C3.44607 17.3645 3.97628 17.1278 4.56395 16.8678L5.01958 17.8977C4.43397 18.1568 3.90575 18.3926 3.44053 18.6016L2.97896 17.5744ZM6.15818 16.1676C6.65943 15.9489 7.18937 15.7192 7.74573 15.4799L8.19082 16.5143C7.63623 16.753 7.10801 16.9819 6.60839 17.1998L6.15818 16.1676ZM9.3414 14.7979C9.85742 14.5788 10.3913 14.3536 10.9416 14.1231L11.3767 15.1618C10.8281 15.3916 10.2959 15.6161 9.78148 15.8345L9.3414 14.7979ZM12.5456 13.4558C13.0696 13.2393 13.6059 13.0192 14.1535 12.7961L14.5785 13.839C14.0326 14.0614 13.498 14.2808 12.9756 14.4966L12.5456 13.4558ZM15.7657 12.1438C16.296 11.9309 16.8351 11.7159 17.3824 11.4994L17.7967 12.5465C17.2513 12.7623 16.7139 12.9766 16.1855 13.1889L15.7657 12.1438ZM18.9942 10.8665C19.5272 10.6589 20.0666 10.4503 20.6119 10.2413L21.015 11.2929C20.4717 11.5011 19.9341 11.7089 19.403 11.9158L18.9942 10.8665ZM22.2355 9.62426C22.7738 9.42142 23.317 9.21854 23.8643 9.01603L24.2551 10.0722C23.7099 10.2739 23.1689 10.476 22.6325 10.6781L22.2355 9.62426ZM25.4972 8.41759C26.0382 8.22125 26.5825 8.02563 27.1296 7.83112L27.5069 8.89222C26.9622 9.08588 26.4201 9.28066 25.8814 9.47619L25.4972 8.41759ZM28.7684 7.2548C29.3145 7.0649 29.8626 6.87644 30.4123 6.6898L30.7744 7.75616C30.2274 7.9419 29.6818 8.12946 29.1383 8.31848L28.7684 7.2548ZM32.0602 6.13736C32.6102 5.95539 33.1611 5.77557 33.7124 5.59826L34.0572 6.67035C33.509 6.84666 32.961 7.0255 32.4139 7.20652L32.0602 6.13736ZM35.3704 5.07313C35.9249 4.90024 36.4793 4.73025 37.0329 4.56354L37.3576 5.64186C36.8077 5.80749 36.2568 5.97641 35.7055 6.14826L35.3704 5.07313ZM38.6989 4.07117C39.259 3.90888 39.8176 3.75034 40.3742 3.59594L40.6752 4.68113C40.1229 4.83433 39.5684 4.99169 39.0123 5.15283L38.6989 4.07117ZM42.0559 3.14063C42.6211 2.99146 43.1836 2.84704 43.7426 2.70778L44.0149 3.80054C43.4611 3.93849 42.9037 4.08161 42.3433 4.22951L42.0559 3.14063ZM45.4341 2.3C46.0046 2.16719 46.5708 2.04034 47.1319 1.91994L47.3682 3.02103C46.8138 3.14001 46.2539 3.26543 45.6894 3.39684L45.4341 2.3ZM48.8447 1.56964C49.4248 1.45707 49.9985 1.35219 50.5649 1.25554L50.7543 2.36566C50.1968 2.4608 49.6314 2.56414 49.0592 2.67519L48.8447 1.56964ZM52.293 0.98337C52.581 0.941993 52.8668 0.903022 53.1502 0.86654L53.294 1.98349C53.0162 2.01925 52.7359 2.05747 52.4532 2.09809L52.293 0.98337ZM53.1502 0.86654C53.4333 0.830106 53.7179 0.79612 54.004 0.764533L54.1276 1.8839C53.8481 1.91475 53.5702 1.94794 53.294 1.98349L53.1502 0.86654ZM55.7377 0.603399C56.3065 0.560136 56.8806 0.525616 57.4593 0.499482L57.5101 1.6245C56.9425 1.65013 56.38 1.68397 55.8231 1.72632L55.7377 0.603399ZM59.1908 0.446184C59.7643 0.436533 60.3419 0.434534 60.9231 0.439857L60.9128 1.56598C60.341 1.56074 59.7732 1.56271 59.2097 1.57219L59.1908 0.446184ZM62.6469 0.476458C63.2205 0.495385 63.7973 0.520976 64.3767 0.552931L64.3147 1.67739C63.7433 1.64587 63.1748 1.62065 62.6097 1.60201L62.6469 0.476458ZM66.0969 0.665628C66.668 0.708826 67.2413 0.757821 67.8164 0.812331L67.7101 1.93347C67.1419 1.87961 66.5757 1.83123 66.0119 1.78858L66.0969 0.665628ZM69.5345 0.990731C70.103 1.05479 70.6728 1.12391 71.2437 1.19783L71.0991 2.31468C70.5342 2.24153 69.9705 2.17316 69.4084 2.10981L69.5345 0.990731ZM72.9541 1.43295C73.5206 1.51528 74.0879 1.60205 74.6556 1.693L74.4775 2.80499C73.915 2.71487 73.3531 2.62893 72.7921 2.54741L72.9541 1.43295ZM76.3556 1.9775C76.9205 2.07601 77.4856 2.17841 78.0503 2.28445L77.8424 3.39127C77.2824 3.28611 76.7222 3.18457 76.1621 3.08692L76.3556 1.9775ZM79.7408 2.61278C80.3035 2.72561 80.8655 2.84182 81.4266 2.96117L81.1923 4.06269C80.6354 3.94423 80.0776 3.82891 79.5194 3.71696L79.7408 2.61278ZM83.1089 3.32889C83.6692 3.45459 84.2282 3.58319 84.7856 3.71445L84.5274 4.81063C83.9738 4.68026 83.4187 4.55255 82.8624 4.42774L83.1089 3.32889ZM86.4592 4.11759C87.0177 4.25509 87.5741 4.39503 88.1283 4.53716L87.8485 5.62801C87.2978 5.48676 86.7448 5.34771 86.19 5.21111L86.4592 4.11759ZM89.7909 4.9719C90.3481 5.12035 90.9026 5.27079 91.454 5.42297L91.1544 6.50854C90.6062 6.35724 90.0549 6.20767 89.501 6.06011L89.7909 4.9719ZM93.1056 5.8865C93.6614 6.04504 94.2135 6.2051 94.7616 6.3664L94.4437 7.44676C93.8985 7.28632 93.3494 7.12713 92.7967 6.96947L93.1056 5.8865ZM96.4091 6.85842C96.9606 7.02554 97.5075 7.19365 98.0494 7.36247L97.7144 8.43767C97.1752 8.2697 96.6311 8.10244 96.0825 7.93619L96.4091 6.85842ZM99.6946 7.88186C100.244 8.05768 100.788 8.23392 101.326 8.41024L100.975 9.48032C100.44 9.30484 99.8984 9.12945 99.3515 8.95449L99.6946 7.88186ZM102.958 8.95224C103.51 9.13761 104.054 9.3227 104.591 9.50713L104.225 10.5721C103.691 10.3885 103.149 10.2043 102.6 10.0198L102.958 8.95224ZM106.209 10.0698C106.758 10.2629 107.298 10.4548 107.827 10.645L107.446 11.7049C106.919 11.5155 106.382 11.3244 105.835 11.1322L106.209 10.0698ZM109.451 11.2345C110.001 11.4364 110.539 11.6359 111.063 11.8323L110.668 12.8869C110.146 12.6913 109.61 12.4928 109.063 12.2917L109.451 11.2345ZM112.665 12.4387C113.215 12.6488 113.747 12.8544 114.26 13.0547L113.851 14.1038C113.34 13.9045 112.81 13.6998 112.263 13.4906L112.665 12.4387ZM115.86 13.685C116.419 13.9079 116.951 14.122 117.453 14.3262L117.029 15.3694C116.53 15.1663 116 14.9531 115.443 14.7313L115.86 13.685ZM119.051 14.9828C119.646 15.2302 120.181 15.4557 120.651 15.6557L120.209 16.6918C119.743 16.493 119.211 16.2688 118.619 16.0227L119.051 14.9828Z" fill="#105877"/>
</svg>
