<svg width="123" height="20" viewBox="0 0 123 20" fill="none" xmlns="http://www.w3.org/2000/svg">
<path opacity="0.4" d="M53.2363 1.42501L53.3082 1.98349L53.3082 1.98349L53.2363 1.42501ZM122.777 17.1913L116.311 17.8736L118.953 11.9327L122.777 17.1913ZM0.869629 19.1621C0.630751 18.6522 0.630756 18.6522 0.630762 18.6522C0.630766 18.6522 0.630773 18.6522 0.63078 18.6522C0.630793 18.6522 0.630811 18.6522 0.630833 18.6522C0.630876 18.6521 0.630937 18.6521 0.631013 18.6521C0.631167 18.652 0.631387 18.6519 0.631673 18.6518C0.632245 18.6515 0.633082 18.6511 0.634183 18.6506C0.636383 18.6496 0.639639 18.648 0.64394 18.646C0.652542 18.642 0.665328 18.6361 0.68223 18.6282C0.716034 18.6124 0.766304 18.589 0.832501 18.5584C0.964894 18.497 1.161 18.4064 1.41651 18.2894L1.88562 19.3132C1.63166 19.4295 1.43704 19.5194 1.30609 19.5801C1.24061 19.6104 1.19105 19.6335 1.15794 19.6489C1.14138 19.6566 1.12894 19.6625 1.12068 19.6663C1.11655 19.6682 1.11346 19.6697 1.11143 19.6706C1.11042 19.6711 1.10966 19.6715 1.10918 19.6717C1.10893 19.6718 1.10875 19.6719 1.10864 19.6719C1.10859 19.672 1.10855 19.672 1.10852 19.672C1.10851 19.672 1.10851 19.672 1.1085 19.672C1.1085 19.672 1.1085 19.672 1.1085 19.672C1.1085 19.672 1.10851 19.672 0.869629 19.1621ZM2.99312 17.5744C3.46023 17.3645 3.99044 17.1278 4.57811 16.8678L5.03374 17.8977C4.44813 18.1568 3.91991 18.3926 3.45469 18.6016L2.99312 17.5744ZM6.17234 16.1676C6.67359 15.9489 7.20353 15.7192 7.75989 15.4799L8.20498 16.5143C7.65039 16.753 7.12217 16.9819 6.62255 17.1998L6.17234 16.1676ZM9.35556 14.7979C9.87158 14.5788 10.4055 14.3536 10.9558 14.1231L11.3908 15.1618C10.8422 15.3916 10.31 15.6161 9.79564 15.8345L9.35556 14.7979ZM12.5597 13.4558C13.0837 13.2393 13.6201 13.0192 14.1677 12.7961L14.5926 13.839C14.0468 14.0614 13.5121 14.2808 12.9898 14.4966L12.5597 13.4558ZM15.7799 12.1438C16.3101 11.9309 16.8493 11.7159 17.3965 11.4994L17.8109 12.5465C17.2655 12.7623 16.7281 12.9766 16.1996 13.1889L15.7799 12.1438ZM19.0084 10.8665C19.5413 10.6589 20.0808 10.4503 20.6261 10.2413L21.0292 11.2929C20.4858 11.5011 19.9483 11.7089 19.4172 11.9158L19.0084 10.8665ZM22.2496 9.62426C22.788 9.42142 23.3311 9.21854 23.8785 9.01603L24.2692 10.0722C23.7241 10.2739 23.183 10.476 22.6467 10.6781L22.2496 9.62426ZM25.5113 8.41759C26.0523 8.22125 26.5967 8.02563 27.1438 7.83112L27.521 8.89222C26.9763 9.08588 26.4343 9.28066 25.8955 9.47619L25.5113 8.41759ZM28.7825 7.2548C29.3286 7.0649 29.8768 6.87644 30.4265 6.6898L30.7886 7.75616C30.2416 7.9419 29.696 8.12946 29.1524 8.31848L28.7825 7.2548ZM32.0743 6.13736C32.6243 5.95539 33.1753 5.77557 33.7266 5.59826L34.0714 6.67035C33.5232 6.84666 32.9752 7.0255 32.4281 7.20652L32.0743 6.13736ZM35.3845 5.07313C35.9391 4.90024 36.4935 4.73025 37.047 4.56354L37.3718 5.64186C36.8218 5.80749 36.2709 5.97641 35.7197 6.14826L35.3845 5.07313ZM38.7131 4.07117C39.2731 3.90888 39.8318 3.75034 40.3884 3.59594L40.6894 4.68113C40.1371 4.83433 39.5826 4.99169 39.0265 5.15283L38.7131 4.07117ZM42.0701 3.14063C42.6353 2.99146 43.1978 2.84704 43.7568 2.70778L44.029 3.80054C43.4753 3.93849 42.9179 4.08161 42.3574 4.22951L42.0701 3.14063ZM45.4482 2.3C46.0188 2.16719 46.585 2.04034 47.1461 1.91994L47.3823 3.02103C46.8279 3.14001 46.2681 3.26543 45.7036 3.39684L45.4482 2.3ZM48.8588 1.56964C49.4389 1.45707 50.0126 1.35219 50.579 1.25554L50.7685 2.36566C50.2109 2.4608 49.6456 2.56414 49.0733 2.67519L48.8588 1.56964ZM52.3072 0.98337C52.5952 0.941993 52.881 0.903022 53.1644 0.86654L53.3082 1.98349C53.0304 2.01925 52.7501 2.05747 52.4674 2.09809L52.3072 0.98337ZM53.1644 0.86654C53.4475 0.830106 53.7321 0.79612 54.0181 0.764533L54.1417 1.8839C53.8623 1.91475 53.5844 1.94794 53.3082 1.98349L53.1644 0.86654ZM55.7519 0.603399C56.3207 0.560136 56.8947 0.525616 57.4734 0.499482L57.5242 1.6245C56.9566 1.65013 56.3942 1.68397 55.8373 1.72632L55.7519 0.603399ZM59.2049 0.446184C59.7785 0.436533 60.3561 0.434534 60.9373 0.439857L60.927 1.56598C60.3552 1.56074 59.7873 1.56271 59.2239 1.57219L59.2049 0.446184ZM62.661 0.476458C63.2347 0.495385 63.8114 0.520976 64.3909 0.552931L64.3288 1.67739C63.7574 1.64587 63.189 1.62065 62.6239 1.60201L62.661 0.476458ZM66.111 0.665628C66.6821 0.708826 67.2554 0.757821 67.8306 0.812331L67.7243 1.93347C67.156 1.87961 66.5898 1.83123 66.0261 1.78858L66.111 0.665628ZM69.5487 0.990731C70.1171 1.05479 70.687 1.12391 71.2579 1.19783L71.1133 2.31468C70.5483 2.24153 69.9846 2.17316 69.4226 2.10981L69.5487 0.990731ZM72.9682 1.43295C73.5348 1.51528 74.1021 1.60205 74.6698 1.693L74.4916 2.80499C73.9292 2.71487 73.3673 2.62893 72.8063 2.54741L72.9682 1.43295ZM76.3697 1.9775C76.9347 2.07601 77.4997 2.17841 78.0644 2.28445L77.8566 3.39127C77.2965 3.28611 76.7363 3.18457 76.1763 3.08692L76.3697 1.9775ZM79.755 2.61278C80.3176 2.72561 80.8797 2.84182 81.4407 2.96117L81.2064 4.06269C80.6495 3.94423 80.0918 3.82891 79.5336 3.71696L79.755 2.61278ZM83.1231 3.32889C83.6834 3.45459 84.2424 3.58319 84.7997 3.71445L84.5416 4.81063C83.988 4.68026 83.4329 4.55255 82.8766 4.42774L83.1231 3.32889ZM86.4734 4.11759C87.0318 4.25509 87.5883 4.39503 88.1424 4.53716L87.8627 5.62801C87.3119 5.48676 86.759 5.34771 86.2042 5.21111L86.4734 4.11759ZM89.8051 4.9719C90.3623 5.12035 90.9168 5.27079 91.4681 5.42297L91.1685 6.50854C90.6203 6.35724 90.0691 6.20767 89.5152 6.06011L89.8051 4.9719ZM93.1198 5.8865C93.6755 6.04504 94.2277 6.2051 94.7758 6.3664L94.4579 7.44676C93.9127 7.28632 93.3635 7.12713 92.8108 6.96947L93.1198 5.8865ZM96.4232 6.85842C96.9747 7.02554 97.5216 7.19365 98.0636 7.36247L97.7286 8.43767C97.1894 8.2697 96.6453 8.10244 96.0966 7.93619L96.4232 6.85842ZM99.7087 7.88186C100.258 8.05768 100.802 8.23392 101.34 8.41024L100.989 9.48032C100.454 9.30484 99.9126 9.12945 99.3656 8.95449L99.7087 7.88186ZM102.972 8.95224C103.524 9.13761 104.069 9.3227 104.605 9.50713L104.239 10.5721C103.705 10.3885 103.163 10.2043 102.614 10.0198L102.972 8.95224ZM106.223 10.0698C106.772 10.2629 107.312 10.4548 107.841 10.645L107.461 11.7049C106.933 11.5155 106.396 11.3244 105.85 11.1322L106.223 10.0698ZM109.465 11.2345C110.015 11.4364 110.553 11.6359 111.077 11.8323L110.682 12.8869C110.16 12.6913 109.625 12.4928 109.077 12.2917L109.465 11.2345ZM112.679 12.4387C113.229 12.6488 113.761 12.8544 114.274 13.0547L113.865 14.1038C113.354 13.9045 112.824 13.6998 112.277 13.4906L112.679 12.4387ZM115.874 13.685C116.434 13.9079 116.965 14.122 117.468 14.3262L117.043 15.3694C116.544 15.1663 116.014 14.9531 115.457 14.7313L115.874 13.685ZM119.065 14.9828C119.661 15.2302 120.195 15.4557 120.665 15.6557L120.224 16.6918C119.757 16.493 119.225 16.2688 118.633 16.0227L119.065 14.9828Z" fill="#105877"/>
</svg>
