<svg width="35" height="48" viewBox="0 0 35 48" fill="none" xmlns="http://www.w3.org/2000/svg">
<path d="M33.3372 46.5V41.5C33.3372 38.8478 32.4943 36.3043 30.994 34.4289C29.4937 32.5536 27.4589 31.5 25.3372 31.5H23.3372C22.8067 31.5 22.298 31.2366 21.9229 30.7678C21.5479 30.2989 21.3372 29.663 21.3372 29V16.5C21.3372 15.1739 20.9157 13.9021 20.1656 12.9645C19.4154 12.0268 18.398 11.5 17.3372 11.5V11.5C16.2763 11.5 15.2589 12.0268 14.5087 12.9645C13.7586 13.9021 13.3372 15.1739 13.3372 16.5V39L8.53716 31C8.16457 30.379 7.68143 29.875 7.12601 29.5279C6.57059 29.1807 5.95814 29 5.33716 29H4.46916C2.73916 29 1.33716 30.7525 1.33716 32.915C1.33716 33.625 1.49116 34.3225 1.78316 34.93L7.33716 46.5M17.3372 4V1.5ZM29.3372 19H31.3372ZM3.33716 19H5.33716ZM8.02316 7.3575L6.60916 5.59ZM26.6512 7.3575L28.0652 5.59Z" fill="#105877"/>
<path d="M33.3372 46.5V41.5C33.3372 38.8478 32.4943 36.3043 30.994 34.4289C29.4937 32.5536 27.4589 31.5 25.3372 31.5H23.3372C22.8067 31.5 22.298 31.2366 21.9229 30.7678C21.5479 30.2989 21.3372 29.663 21.3372 29V16.5C21.3372 15.1739 20.9157 13.9021 20.1656 12.9645C19.4154 12.0268 18.398 11.5 17.3372 11.5V11.5C16.2763 11.5 15.2589 12.0268 14.5087 12.9645C13.7586 13.9021 13.3372 15.1739 13.3372 16.5V39L8.53716 31C8.16457 30.379 7.68143 29.875 7.12601 29.5279C6.57059 29.1807 5.95814 29 5.33716 29H4.46916C2.73916 29 1.33716 30.7525 1.33716 32.915C1.33716 33.625 1.49116 34.3225 1.78316 34.93L7.33716 46.5M17.3372 4V1.5M29.3372 19H31.3372M3.33716 19H5.33716M8.02316 7.3575L6.60916 5.59M26.6512 7.3575L28.0652 5.59" stroke="#105877" stroke-width="2" stroke-linecap="round" stroke-linejoin="round"/>
</svg>
