<svg width="123" height="20" viewBox="0 0 123 20" fill="none" xmlns="http://www.w3.org/2000/svg">
<path opacity="0.4" d="M53.4287 18.5579L53.5006 17.9994L53.4287 18.5579ZM122.969 2.79159L116.503 2.10929L119.145 8.05018L122.969 2.79159ZM1.06201 0.820801C0.823134 1.3307 0.823139 1.3307 0.823145 1.33071C0.823149 1.33071 0.823156 1.33071 0.823162 1.33072C0.823176 1.33072 0.823194 1.33073 0.823215 1.33074C0.823259 1.33076 0.823319 1.33079 0.823396 1.33082C0.82355 1.3309 0.82377 1.331 0.824056 1.33113C0.824628 1.3314 0.825465 1.33179 0.826565 1.33231C0.828766 1.33334 0.832021 1.33486 0.836323 1.33687C0.844925 1.34089 0.85771 1.34686 0.874613 1.35474C0.908417 1.37049 0.958687 1.39387 1.02488 1.42456C1.15728 1.48592 1.35338 1.57648 1.60889 1.69356L2.078 0.669749C1.82404 0.553382 1.62943 0.463513 1.49847 0.402813C1.43299 0.372464 1.38343 0.349407 1.35032 0.333976C1.33377 0.326261 1.32132 0.320453 1.31306 0.316593C1.30893 0.314663 1.30585 0.31322 1.30382 0.312269C1.3028 0.311794 1.30205 0.311442 1.30156 0.311213C1.30131 0.311099 1.30114 0.311016 1.30103 0.310963C1.30097 0.310937 1.30093 0.310919 1.30091 0.310908C1.3009 0.310903 1.30089 0.310899 1.30089 0.310898C1.30088 0.310897 1.30089 0.310898 1.30088 0.310897C1.30089 0.310898 1.30089 0.3109 1.06201 0.820801ZM3.1855 2.40852C3.65261 2.61842 4.18282 2.85511 4.7705 3.1151L5.22612 2.08522C4.64052 1.82614 4.11229 1.59034 3.64708 1.3813L3.1855 2.40852ZM6.36472 3.81534C6.86598 4.03397 7.39591 4.26367 7.95227 4.50305L8.39737 3.46858C7.84278 3.22996 7.31455 3.00099 6.81494 2.78309L6.36472 3.81534ZM9.54795 5.18502C10.064 5.40409 10.5978 5.62931 11.1481 5.8598L11.5832 4.82108C11.0346 4.5913 10.5024 4.36678 9.98802 4.1484L9.54795 5.18502ZM12.7521 6.52709C13.2761 6.74359 13.8124 6.96373 14.3601 7.18686L14.785 6.14394C14.2391 5.92153 13.7045 5.70209 13.1822 5.48627L12.7521 6.52709ZM15.9723 7.83907C16.5025 8.05202 17.0417 8.26702 17.5889 8.48355L18.0033 7.43638C17.4578 7.22057 16.9205 7.00629 16.392 6.79404L15.9723 7.83907ZM19.2008 9.11644C19.7337 9.32405 20.2732 9.53259 20.8185 9.74161L21.2215 8.69004C20.6782 8.48178 20.1406 8.27398 19.6096 8.06709L19.2008 9.11644ZM22.442 10.3586C22.9804 10.5615 23.5235 10.7644 24.0708 10.9669L24.4616 9.9107C23.9165 9.70898 23.3754 9.50689 22.8391 9.30481L22.442 10.3586ZM25.7037 11.5653C26.2447 11.7617 26.7891 11.9573 27.3362 12.1518L27.7134 11.0907C27.1687 10.897 26.6267 10.7022 26.0879 10.5067L25.7037 11.5653ZM28.9749 12.7281C29.521 12.918 30.0692 13.1065 30.6189 13.2931L30.9809 12.2267C30.4339 12.041 29.8884 11.8535 29.3448 11.6644L28.9749 12.7281ZM32.2667 13.8456C32.8167 14.0275 33.3677 14.2073 33.9189 14.3846L34.2637 13.3126C33.7155 13.1363 33.1676 12.9574 32.6205 12.7764L32.2667 13.8456ZM35.5769 14.9098C36.1315 15.0827 36.6858 15.2527 37.2394 15.4194L37.5642 14.341C37.0142 14.1754 36.4633 14.0065 35.9121 13.8346L35.5769 14.9098ZM38.9054 15.9117C39.4655 16.074 40.0242 16.2326 40.5808 16.387L40.8818 15.3018C40.3295 15.1486 39.775 14.9912 39.2189 14.8301L38.9054 15.9117ZM42.2625 16.8423C42.8277 16.9915 43.3902 17.1359 43.9492 17.2751L44.2214 16.1824C43.6677 16.0444 43.1102 15.9013 42.5498 15.7534L42.2625 16.8423ZM45.6406 17.6829C46.2112 17.8157 46.7773 17.9426 47.3384 18.063L47.5747 16.9619C47.0203 16.8429 46.4605 16.7175 45.8959 16.5861L45.6406 17.6829ZM49.0512 18.4133C49.6313 18.5258 50.205 18.6307 50.7714 18.7274L50.9608 17.6173C50.4033 17.5221 49.838 17.4188 49.2657 17.3077L49.0512 18.4133ZM52.4996 18.9995C52.7876 19.0409 53.0734 19.0799 53.3568 19.1164L53.5006 17.9994C53.2228 17.9637 52.9425 17.9254 52.6597 17.8848L52.4996 18.9995ZM53.3568 19.1164C53.6398 19.1528 53.9244 19.1868 54.2105 19.2184L54.3341 18.099C54.0546 18.0682 53.7768 18.035 53.5006 17.9994L53.3568 19.1164ZM55.9442 19.3795C56.5131 19.4228 57.0871 19.4573 57.6658 19.4834L57.7166 18.3584C57.149 18.3328 56.5865 18.2989 56.0296 18.2566L55.9442 19.3795ZM59.3973 19.5367C59.9708 19.5464 60.5484 19.5484 61.1297 19.5431L61.1194 18.4169C60.5475 18.4222 59.9797 18.4202 59.4163 18.4107L59.3973 19.5367ZM62.8534 19.5065C63.4271 19.4875 64.0038 19.4619 64.5832 19.43L64.5212 18.3055C63.9498 18.337 63.3814 18.3623 62.8163 18.3809L62.8534 19.5065ZM66.3034 19.3173C66.8745 19.2741 67.4478 19.2251 68.0229 19.1706L67.9167 18.0494C67.3484 18.1033 66.7822 18.1517 66.2185 18.1943L66.3034 19.3173ZM69.7411 18.9922C70.3095 18.9281 70.8793 18.859 71.4503 18.7851L71.3057 17.6682C70.7407 17.7414 70.177 17.8098 69.615 17.8731L69.7411 18.9922ZM73.1606 18.55C73.7272 18.4676 74.2945 18.3809 74.8622 18.2899L74.684 17.1779C74.1216 17.268 73.5597 17.354 72.9986 17.4355L73.1606 18.55ZM76.5621 18.0054C77.1271 17.9069 77.6921 17.8045 78.2568 17.6985L78.049 16.5916C77.4889 16.6968 76.9287 16.7983 76.3687 16.896L76.5621 18.0054ZM79.9474 17.3701C80.51 17.2573 81.072 17.1411 81.6331 17.0217L81.3988 15.9202C80.8419 16.0387 80.2842 16.154 79.7259 16.266L79.9474 17.3701ZM83.3155 16.654C83.8758 16.5283 84.4348 16.3997 84.9921 16.2685L84.734 15.1723C84.1804 15.3026 83.6253 15.4304 83.069 15.5552L83.3155 16.654ZM86.6658 15.8653C87.2242 15.7278 87.7807 15.5879 88.3348 15.4458L88.055 14.3549C87.5043 14.4961 86.9514 14.6352 86.3965 14.7718L86.6658 15.8653ZM89.9975 15.011C90.5547 14.8626 91.1092 14.7121 91.6605 14.5599L91.3609 13.4744C90.8127 13.6257 90.2615 13.7752 89.7075 13.9228L89.9975 15.011ZM93.3121 14.0964C93.8679 13.9379 94.42 13.7778 94.9682 13.6165L94.6503 12.5362C94.1051 12.6966 93.5559 12.8558 93.0032 13.0134L93.3121 14.0964ZM96.6156 13.1245C97.1671 12.9574 97.714 12.7893 98.2559 12.6204L97.921 11.5452C97.3818 11.7132 96.8377 11.8805 96.289 12.0467L96.6156 13.1245ZM99.9011 12.1011C100.451 11.9252 100.995 11.749 101.532 11.5727L101.181 10.5026C100.646 10.6781 100.105 10.8535 99.558 11.0284L99.9011 12.1011ZM103.165 11.0307C103.717 10.8453 104.261 10.6602 104.797 10.4758L104.431 9.41082C103.897 9.5944 103.355 9.77864 102.806 9.96315L103.165 11.0307ZM106.416 9.91308C106.965 9.72001 107.504 9.52813 108.034 9.3379L107.653 8.27806C107.126 8.46745 106.589 8.65847 106.042 8.85066L106.416 9.91308ZM109.657 8.74845C110.207 8.5465 110.745 8.34703 111.269 8.15064L110.874 7.09605C110.352 7.29158 109.817 7.49016 109.269 7.69122L109.657 8.74845ZM112.872 7.54423C113.421 7.3341 113.953 7.1285 114.467 6.92823L114.058 5.87906C113.546 6.07843 113.017 6.28312 112.47 6.49232L112.872 7.54423ZM116.066 6.29792C116.626 6.07504 117.158 5.86087 117.66 5.65676L117.236 4.61351C116.736 4.81663 116.207 5.02978 115.65 5.25163L116.066 6.29792ZM119.258 5.00012C119.853 4.75268 120.388 4.52722 120.857 4.32724L120.416 3.29114C119.949 3.48988 119.418 3.71406 118.825 3.96019L119.258 5.00012Z" fill="#105877"/>
</svg>
