<svg width="25" height="24" viewBox="0 0 25 24" fill="none" xmlns="http://www.w3.org/2000/svg">
<path fill-rule="evenodd" clip-rule="evenodd" d="M11.6133 3.51898C10.9429 3.51898 10.3727 3.9848 10.2126 4.61265H15.5952C15.4352 3.9848 14.8649 3.51898 14.1945 3.51898H11.6133ZM17.116 4.61264H19.097C21.198 4.61264 22.9089 6.34428 22.9089 8.47085C22.9089 8.47085 22.8489 9.3711 22.8289 10.6248C22.8269 10.724 22.7788 10.8212 22.6998 10.88C22.2186 11.2354 21.7783 11.5291 21.7383 11.5493C20.0775 12.6632 18.1475 13.447 16.0915 13.8369C15.9574 13.8632 15.8254 13.7934 15.7573 13.6739C15.181 12.6754 14.1045 12.0253 12.9039 12.0253C11.7113 12.0253 10.6248 12.6683 10.0315 13.6678C9.96247 13.7853 9.8324 13.8531 9.69934 13.8278C7.66032 13.4369 5.73035 12.6541 4.07953 11.5594L3.11905 10.8911C3.03901 10.8405 2.98898 10.7493 2.98898 10.6481C2.95897 10.1316 2.90894 8.47085 2.90894 8.47085C2.90894 6.34428 4.6198 4.61264 6.72085 4.61264H8.69183C8.88193 3.1443 10.1125 2 11.6133 2H14.1945C15.6953 2 16.9259 3.1443 17.116 4.61264ZM22.5687 12.8152L22.5287 12.8355C20.5077 14.1924 18.0765 15.0937 15.5252 15.4684C15.165 15.519 14.8048 15.2861 14.7048 14.9216C14.4847 14.0912 13.7743 13.5443 12.9239 13.5443H12.9139H12.8939C12.0435 13.5443 11.3331 14.0912 11.113 14.9216C11.013 15.2861 10.6528 15.519 10.2926 15.4684C7.74136 15.0937 5.31014 14.1924 3.28913 12.8355C3.27913 12.8254 3.17908 12.7646 3.09904 12.8152C3.00899 12.8659 3.00899 12.9874 3.00899 12.9874L3.07903 18.1519C3.07903 20.2785 4.77988 22 6.88093 22H18.9269C21.028 22 22.7288 20.2785 22.7288 18.1519L22.8089 12.9874C22.8089 12.9874 22.8089 12.8659 22.7188 12.8152C22.6688 12.7849 22.6088 12.795 22.5687 12.8152ZM13.6543 17.0583C13.6543 17.4836 13.3241 17.8177 12.9039 17.8177C12.4937 17.8177 12.1535 17.4836 12.1535 17.0583V15.7519C12.1535 15.3367 12.4937 14.9924 12.9039 14.9924C13.3241 14.9924 13.6543 15.3367 13.6543 15.7519V17.0583Z" fill="#ABBED1"/>
</svg>
