<svg width="25" height="24" viewBox="0 0 25 24" fill="none" xmlns="http://www.w3.org/2000/svg">
<path fill-rule="evenodd" clip-rule="evenodd" d="M10.7955 3.51898C10.1251 3.51898 9.55479 3.9848 9.39471 4.61265H14.7774C14.6174 3.9848 14.0471 3.51898 13.3767 3.51898H10.7955ZM16.2982 4.61264H18.2792C20.3802 4.61264 22.0911 6.34428 22.0911 8.47085C22.0911 8.47085 22.0311 9.3711 22.0111 10.6248C22.0091 10.724 21.961 10.8212 21.882 10.88C21.4008 11.2354 20.9605 11.5291 20.9205 11.5493C19.2597 12.6632 17.3297 13.447 15.2737 13.8369C15.1396 13.8632 15.0076 13.7934 14.9395 13.6739C14.3632 12.6754 13.2867 12.0253 12.0861 12.0253C10.8935 12.0253 9.80692 12.6683 9.21362 13.6678C9.14459 13.7853 9.01452 13.8531 8.88146 13.8278C6.84244 13.4369 4.91247 12.6541 3.26165 11.5594L2.30117 10.8911C2.22113 10.8405 2.1711 10.7493 2.1711 10.6481C2.14109 10.1316 2.09106 8.47085 2.09106 8.47085C2.09106 6.34428 3.80192 4.61264 5.90297 4.61264H7.87395C8.06405 3.1443 9.29466 2 10.7955 2H13.3767C14.8775 2 16.1081 3.1443 16.2982 4.61264ZM21.7509 12.8152L21.7109 12.8355C19.6899 14.1924 17.2587 15.0937 14.7074 15.4684C14.3472 15.519 13.987 15.2861 13.887 14.9216C13.6669 14.0912 12.9565 13.5443 12.1061 13.5443H12.0961H12.0761C11.2257 13.5443 10.5153 14.0912 10.2952 14.9216C10.1952 15.2861 9.83493 15.519 9.47475 15.4684C6.92348 15.0937 4.49226 14.1924 2.47125 12.8355C2.46125 12.8254 2.3612 12.7646 2.28116 12.8152C2.19111 12.8659 2.19111 12.9874 2.19111 12.9874L2.26115 18.1519C2.26115 20.2785 3.962 22 6.06305 22H18.1091C20.2102 22 21.911 20.2785 21.911 18.1519L21.9911 12.9874C21.9911 12.9874 21.9911 12.8659 21.901 12.8152C21.851 12.7849 21.791 12.795 21.7509 12.8152ZM12.8365 17.0583C12.8365 17.4836 12.5063 17.8177 12.0861 17.8177C11.6759 17.8177 11.3357 17.4836 11.3357 17.0583V15.7519C11.3357 15.3367 11.6759 14.9924 12.0861 14.9924C12.5063 14.9924 12.8365 15.3367 12.8365 15.7519V17.0583Z" fill="#ABBED1"/>
</svg>
